<?xml version="1.0" encoding="UTF-8" standalone="no"?>
<svg
   width="351.496063pt"
   height="311.811035pt"
   viewBox="0 0 351.496063 311.811035"
   version="1.1"
   id="svg244"
   sodipodi:docname="markov_process.svg"
   inkscape:version="1.2.2 (b0a8486541, 2022-12-01)"
   xmlns:inkscape="http://www.inkscape.org/namespaces/inkscape"
   xmlns:sodipodi="http://sodipodi.sourceforge.net/DTD/sodipodi-0.dtd"
   xmlns="http://www.w3.org/2000/svg"
   xmlns:svg="http://www.w3.org/2000/svg">
  <defs
     id="defs248" />
  <sodipodi:namedview
     id="namedview246"
     pagecolor="#ffffff"
     bordercolor="#666666"
     borderopacity="1.0"
     inkscape:showpageshadow="2"
     inkscape:pageopacity="0.0"
     inkscape:pagecheckerboard="0"
     inkscape:deskcolor="#d1d1d1"
     inkscape:document-units="pt"
     showgrid="false"
     inkscape:zoom="1.9579166"
     inkscape:cx="234.68824"
     inkscape:cy="207.87402"
     inkscape:window-width="1854"
     inkscape:window-height="1011"
     inkscape:window-x="0"
     inkscape:window-y="0"
     inkscape:window-maximized="1"
     inkscape:current-layer="svg244" />
  <path
     fill="none"
     stroke-width="2.834646"
     stroke-linecap="round"
     stroke-linejoin="round"
     stroke="rgb(39.215088%, 39.215088%, 39.215088%)"
     stroke-opacity="1"
     stroke-miterlimit="4"
     d="M 61.019531 279.230469 C 61.019531 294.5 48.640625 306.878906 33.371094 306.878906 C 18.101562 306.878906 5.722656 294.5 5.722656 279.230469 C 5.722656 263.960938 18.101562 251.582031 33.371094 251.582031 C 48.640625 251.582031 61.019531 263.960938 61.019531 279.230469 Z M 61.019531 279.230469 "
     id="path2" />
  <path
     fill-rule="nonzero"
     fill="rgb(39.215088%, 39.215088%, 39.215088%)"
     fill-opacity="1"
     d="M 35.289062 264.800781 L 13.925781 264.800781 L 13.269531 272.6875 L 14.144531 272.6875 C 14.636719 267.042969 15.132812 265.894531 20.445312 265.894531 C 21.046875 265.894531 21.976562 265.894531 22.304688 265.949219 C 23.074219 266.113281 23.074219 266.496094 23.074219 267.265625 L 23.074219 285.722656 C 23.074219 286.875 23.074219 287.367188 19.402344 287.367188 L 17.980469 287.367188 L 17.980469 288.460938 C 19.402344 288.351562 22.964844 288.351562 24.605469 288.351562 C 26.195312 288.351562 29.8125 288.351562 31.234375 288.460938 L 31.234375 287.367188 L 29.8125 287.367188 C 26.140625 287.367188 26.140625 286.875 26.140625 285.722656 L 26.140625 267.265625 C 26.140625 266.605469 26.140625 266.113281 26.796875 265.949219 C 27.179688 265.894531 28.113281 265.894531 28.769531 265.894531 C 34.082031 265.894531 34.578125 267.042969 35.070312 272.6875 L 35.945312 272.6875 Z M 35.289062 264.800781 "
     id="path4" />
  <path
     fill="none"
     stroke-width="2.834646"
     stroke-linecap="round"
     stroke-linejoin="round"
     stroke="rgb(39.215088%, 39.215088%, 39.215088%)"
     stroke-opacity="1"
     stroke-miterlimit="4"
     d="M 161.378906 279.050781 C 161.378906 294.320312 149 306.699219 133.730469 306.699219 C 118.457031 306.699219 106.082031 294.320312 106.082031 279.050781 C 106.082031 263.78125 118.457031 251.402344 133.730469 251.402344 C 149 251.402344 161.378906 263.78125 161.378906 279.050781 Z M 161.378906 279.050781 "
     id="path6" />
  <path
     fill-rule="nonzero"
     fill="rgb(39.215088%, 39.215088%, 39.215088%)"
     fill-opacity="1"
     d="M 135.648438 264.621094 L 114.285156 264.621094 L 113.628906 272.507812 L 114.503906 272.507812 C 114.996094 266.867188 115.488281 265.714844 120.804688 265.714844 C 121.40625 265.714844 122.335938 265.714844 122.664062 265.769531 C 123.433594 265.933594 123.433594 266.316406 123.433594 267.085938 L 123.433594 285.542969 C 123.433594 286.695312 123.433594 287.1875 119.761719 287.1875 L 118.339844 287.1875 L 118.339844 288.28125 C 119.761719 288.171875 123.324219 288.171875 124.964844 288.171875 C 126.554688 288.171875 130.171875 288.171875 131.59375 288.28125 L 131.59375 287.1875 L 130.171875 287.1875 C 126.5 287.1875 126.5 286.695312 126.5 285.542969 L 126.5 267.085938 C 126.5 266.425781 126.5 265.933594 127.15625 265.769531 C 127.539062 265.714844 128.472656 265.714844 129.128906 265.714844 C 134.441406 265.714844 134.933594 266.867188 135.429688 272.507812 L 136.304688 272.507812 Z M 135.648438 264.621094 "
     id="path8" />
  <path
     fill="none"
     stroke-width="2.834646"
     stroke-linecap="round"
     stroke-linejoin="round"
     stroke="rgb(39.215088%, 39.215088%, 39.215088%)"
     stroke-opacity="1"
     stroke-miterlimit="4"
     d="M 232.195312 279.050781 C 232.195312 294.320312 219.816406 306.699219 204.546875 306.699219 C 189.277344 306.699219 176.898438 294.320312 176.898438 279.050781 C 176.898438 263.78125 189.277344 251.402344 204.546875 251.402344 C 219.816406 251.402344 232.195312 263.78125 232.195312 279.050781 Z M 232.195312 279.050781 "
     id="path10" />
  <path
     fill-rule="nonzero"
     fill="rgb(39.215088%, 39.215088%, 39.215088%)"
     fill-opacity="1"
     d="M 206.464844 264.617188 L 185.105469 264.617188 L 184.445312 272.507812 L 185.324219 272.507812 C 185.816406 266.863281 186.308594 265.714844 191.621094 265.714844 C 192.226562 265.714844 193.15625 265.714844 193.484375 265.769531 C 194.25 265.933594 194.25 266.316406 194.25 267.082031 L 194.25 285.542969 C 194.25 286.691406 194.25 287.1875 190.582031 287.1875 L 189.15625 287.1875 L 189.15625 288.28125 C 190.582031 288.171875 194.140625 288.171875 195.785156 288.171875 C 197.375 288.171875 200.988281 288.171875 202.414062 288.28125 L 202.414062 287.1875 L 200.988281 287.1875 C 197.320312 287.1875 197.320312 286.691406 197.320312 285.542969 L 197.320312 267.082031 C 197.320312 266.425781 197.320312 265.933594 197.976562 265.769531 C 198.359375 265.714844 199.289062 265.714844 199.949219 265.714844 C 205.261719 265.714844 205.753906 266.863281 206.246094 272.507812 L 207.125 272.507812 Z M 206.464844 264.617188 "
     id="path12" />
  <path
     fill="none"
     stroke-width="2.834646"
     stroke-linecap="round"
     stroke-linejoin="round"
     stroke="rgb(39.215088%, 39.215088%, 39.215088%)"
     stroke-opacity="1"
     stroke-miterlimit="4"
     d="M 345.1875 279.050781 C 345.1875 294.320312 332.808594 306.699219 317.539062 306.699219 C 302.269531 306.699219 289.890625 294.320312 289.890625 279.050781 C 289.890625 263.78125 302.269531 251.402344 317.539062 251.402344 C 332.808594 251.402344 345.1875 263.78125 345.1875 279.050781 Z M 345.1875 279.050781 "
     id="path14" />
  <path
     fill-rule="nonzero"
     fill="rgb(39.215088%, 39.215088%, 39.215088%)"
     fill-opacity="1"
     d="M 319.457031 264.617188 L 298.09375 264.617188 L 297.4375 272.507812 L 298.3125 272.507812 C 298.804688 266.863281 299.300781 265.714844 304.613281 265.714844 C 305.214844 265.714844 306.144531 265.714844 306.476562 265.769531 C 307.242188 265.933594 307.242188 266.316406 307.242188 267.082031 L 307.242188 285.542969 C 307.242188 286.691406 307.242188 287.1875 303.570312 287.1875 L 302.148438 287.1875 L 302.148438 288.28125 C 303.570312 288.171875 307.132812 288.171875 308.777344 288.171875 C 310.363281 288.171875 313.980469 288.171875 315.402344 288.28125 L 315.402344 287.1875 L 313.980469 287.1875 C 310.308594 287.1875 310.308594 286.691406 310.308594 285.542969 L 310.308594 267.082031 C 310.308594 266.425781 310.308594 265.933594 310.964844 265.769531 C 311.351562 265.714844 312.28125 265.714844 312.9375 265.714844 C 318.25 265.714844 318.746094 266.863281 319.238281 272.507812 L 320.113281 272.507812 Z M 319.457031 264.617188 "
     id="path16" />
  <path
     fill-rule="nonzero"
     fill="rgb(39.215088%, 39.215088%, 39.215088%)"
     fill-opacity="1"
     d="M 321.140625 286.238281 L 323.601562 282.632812 C 323.992188 282.074219 324.609375 281.515625 326.175781 281.488281 L 326.175781 280.929688 C 325.503906 280.957031 324.664062 280.984375 324.21875 280.984375 C 323.492188 280.984375 322.625 280.984375 321.925781 280.929688 L 321.925781 281.488281 C 322.625 281.515625 323.015625 281.90625 323.015625 282.296875 C 323.015625 282.492188 322.988281 282.523438 322.875 282.71875 L 320.835938 285.738281 L 318.542969 282.296875 C 318.484375 282.242188 318.402344 282.101562 318.402344 282.019531 C 318.402344 281.824219 318.792969 281.515625 319.578125 281.488281 L 319.578125 280.929688 C 318.933594 280.984375 317.648438 280.984375 316.976562 280.984375 C 316.417969 280.984375 315.300781 280.984375 314.65625 280.929688 L 314.65625 281.488281 L 314.992188 281.488281 C 315.96875 281.488281 316.304688 281.597656 316.640625 282.101562 L 319.910156 287.078125 L 317.003906 291.382812 C 316.753906 291.746094 316.222656 292.558594 314.40625 292.558594 L 314.40625 293.117188 C 315.046875 293.089844 315.800781 293.0625 316.390625 293.0625 C 317.058594 293.0625 318.039062 293.0625 318.683594 293.117188 L 318.683594 292.558594 C 317.84375 292.558594 317.5625 292.054688 317.5625 291.746094 C 317.5625 291.578125 317.621094 291.523438 317.730469 291.328125 L 320.277344 287.582031 L 323.070312 291.832031 C 323.128906 291.914062 323.183594 291.972656 323.183594 292.027344 C 323.183594 292.25 322.792969 292.558594 322.007812 292.558594 L 322.007812 293.117188 C 322.625 293.0625 323.9375 293.0625 324.609375 293.0625 C 325.363281 293.0625 326.175781 293.089844 326.929688 293.117188 L 326.929688 292.558594 L 326.59375 292.558594 C 325.671875 292.558594 325.28125 292.472656 324.917969 291.914062 Z M 321.140625 286.238281 "
     id="path18" />
  <path
     fill-rule="nonzero"
     fill="rgb(39.215088%, 39.215088%, 39.215088%)"
     fill-opacity="1"
     d="M 334.511719 286.238281 L 336.972656 282.632812 C 337.363281 282.074219 337.976562 281.515625 339.542969 281.488281 L 339.542969 280.929688 C 338.871094 280.957031 338.035156 280.984375 337.585938 280.984375 C 336.859375 280.984375 335.992188 280.984375 335.292969 280.929688 L 335.292969 281.488281 C 335.992188 281.515625 336.382812 281.90625 336.382812 282.296875 C 336.382812 282.492188 336.355469 282.523438 336.246094 282.71875 L 334.203125 285.738281 L 331.910156 282.296875 C 331.855469 282.242188 331.769531 282.101562 331.769531 282.019531 C 331.769531 281.824219 332.164062 281.515625 332.945312 281.488281 L 332.945312 280.929688 C 332.300781 280.984375 331.015625 280.984375 330.34375 280.984375 C 329.785156 280.984375 328.667969 280.984375 328.023438 280.929688 L 328.023438 281.488281 L 328.359375 281.488281 C 329.339844 281.488281 329.675781 281.597656 330.011719 282.101562 L 333.28125 287.078125 L 330.375 291.382812 C 330.121094 291.746094 329.589844 292.558594 327.773438 292.558594 L 327.773438 293.117188 C 328.417969 293.089844 329.171875 293.0625 329.757812 293.0625 C 330.429688 293.0625 331.40625 293.0625 332.050781 293.117188 L 332.050781 292.558594 C 331.210938 292.558594 330.933594 292.054688 330.933594 291.746094 C 330.933594 291.578125 330.988281 291.523438 331.101562 291.328125 L 333.644531 287.582031 L 336.441406 291.832031 C 336.496094 291.914062 336.550781 291.972656 336.550781 292.027344 C 336.550781 292.25 336.160156 292.558594 335.378906 292.558594 L 335.378906 293.117188 C 335.992188 293.0625 337.308594 293.0625 337.976562 293.0625 C 338.730469 293.0625 339.542969 293.089844 340.296875 293.117188 L 340.296875 292.558594 L 339.960938 292.558594 C 339.039062 292.558594 338.648438 292.472656 338.285156 291.914062 Z M 334.511719 286.238281 "
     id="path20" />
  <path
     fill-rule="nonzero"
     fill="rgb(39.215088%, 39.215088%, 39.215088%)"
     fill-opacity="1"
     d="M 322.382812 277.761719 C 321.96875 277.371094 321.082031 276.523438 320.496094 274.765625 C 320.125 273.660156 319.972656 272.398438 319.972656 271.160156 C 319.972656 268.449219 320.667969 266.277344 322.210938 264.734375 C 322.40625 264.519531 322.425781 264.519531 322.425781 264.429688 C 322.425781 264.28125 322.273438 264.234375 322.164062 264.234375 C 321.925781 264.234375 321.363281 264.757812 321.101562 264.996094 C 318.953125 267.144531 318.628906 269.683594 318.628906 271.160156 C 318.628906 272.898438 319.082031 274.417969 319.734375 275.570312 C 320.644531 277.152344 321.90625 278.085938 322.164062 278.085938 C 322.273438 278.085938 322.425781 278.042969 322.425781 277.890625 C 322.425781 277.828125 322.382812 277.761719 322.382812 277.761719 Z M 322.382812 277.761719 "
     id="path22" />
  <path
     fill-rule="nonzero"
     fill="rgb(39.215088%, 39.215088%, 39.215088%)"
     fill-opacity="1"
     d="M 327.707031 265.515625 C 327.75 265.320312 327.75 265.277344 327.75 265.277344 C 327.75 265.082031 327.597656 265.019531 327.445312 265.019531 C 327.402344 265.019531 327.378906 265.019531 327.359375 265.039062 L 325.558594 265.125 C 325.363281 265.125 325.121094 265.148438 325.121094 265.539062 C 325.121094 265.777344 325.382812 265.777344 325.492188 265.777344 C 325.644531 265.777344 325.882812 265.777344 326.054688 265.820312 L 324.058594 273.808594 C 324.058594 273.855469 324.015625 274.070312 324.015625 274.113281 C 324.015625 274.460938 324.277344 274.742188 324.6875 274.742188 C 324.925781 274.742188 325.339844 274.613281 325.511719 274.203125 C 325.558594 274.070312 325.753906 273.269531 326.164062 271.660156 C 326.425781 271.683594 327.621094 271.855469 327.621094 272.703125 C 327.621094 272.789062 327.621094 272.832031 327.597656 272.984375 C 327.554688 273.160156 327.554688 273.179688 327.554688 273.3125 C 327.554688 274.222656 328.402344 274.742188 329.3125 274.742188 C 330.703125 274.742188 331.222656 272.703125 331.222656 272.59375 C 331.222656 272.398438 331.007812 272.398438 330.875 272.398438 C 330.636719 272.398438 330.617188 272.421875 330.527344 272.660156 C 330.421875 273.074219 330.09375 274.246094 329.378906 274.246094 C 329.160156 274.246094 329.03125 274.113281 329.03125 273.703125 C 329.03125 273.570312 329.050781 273.3125 329.140625 272.984375 C 329.183594 272.832031 329.183594 272.746094 329.183594 272.636719 C 329.183594 271.464844 327.769531 271.25 326.792969 271.140625 C 326.925781 271.054688 327.25 270.835938 328.011719 270.097656 C 329.074219 269.035156 329.660156 268.882812 330.074219 268.882812 C 330.332031 268.882812 330.441406 269.035156 330.441406 269.035156 C 329.746094 269.144531 329.488281 269.683594 329.488281 270.03125 C 329.488281 270.335938 329.726562 270.683594 330.179688 270.683594 C 330.441406 270.683594 331.179688 270.488281 331.179688 269.511719 C 331.179688 268.796875 330.722656 268.382812 330.117188 268.382812 C 329.269531 268.382812 328.507812 268.992188 327.707031 269.773438 C 327.554688 269.925781 326.902344 270.554688 326.359375 270.859375 Z M 327.707031 265.515625 "
     id="path24" />
  <path
     fill-rule="nonzero"
     fill="rgb(39.215088%, 39.215088%, 39.215088%)"
     fill-opacity="1"
     d="M 336.625 271.160156 C 336.625 269.445312 336.167969 267.925781 335.515625 266.777344 C 334.582031 265.167969 333.324219 264.234375 333.0625 264.234375 C 332.953125 264.234375 332.824219 264.28125 332.824219 264.429688 C 332.824219 264.519531 332.824219 264.539062 333.0625 264.757812 C 334.800781 266.539062 335.277344 268.992188 335.277344 271.160156 C 335.277344 273.898438 334.5625 276.070312 333.042969 277.609375 C 332.824219 277.804688 332.824219 277.828125 332.824219 277.890625 C 332.824219 278.042969 332.953125 278.085938 333.0625 278.085938 C 333.300781 278.085938 333.886719 277.566406 334.128906 277.328125 C 336.296875 275.199219 336.625 272.636719 336.625 271.160156 Z M 336.625 271.160156 "
     id="path26" />
  <path
     fill-rule="nonzero"
     fill="rgb(39.215088%, 39.215088%, 39.215088%)"
     fill-opacity="1"
     d="M 141.808594 278.175781 C 141.394531 277.78125 140.507812 276.9375 139.917969 275.179688 C 139.550781 274.070312 139.398438 272.8125 139.398438 271.574219 C 139.398438 268.859375 140.09375 266.6875 141.636719 265.148438 C 141.832031 264.929688 141.851562 264.929688 141.851562 264.84375 C 141.851562 264.691406 141.699219 264.648438 141.589844 264.648438 C 141.351562 264.648438 140.789062 265.167969 140.527344 265.40625 C 138.378906 267.558594 138.050781 270.097656 138.050781 271.574219 C 138.050781 273.3125 138.507812 274.832031 139.160156 275.980469 C 140.070312 277.566406 141.332031 278.5 141.589844 278.5 C 141.699219 278.5 141.851562 278.457031 141.851562 278.304688 C 141.851562 278.238281 141.808594 278.175781 141.808594 278.175781 Z M 141.808594 278.175781 "
     id="path28" />
  <path
     fill-rule="nonzero"
     fill="rgb(39.215088%, 39.215088%, 39.215088%)"
     fill-opacity="1"
     d="M 147.652344 266.429688 C 147.652344 266.101562 147.652344 265.972656 147.28125 265.972656 C 147.128906 265.972656 147.109375 265.972656 146.980469 266.082031 C 145.914062 266.863281 144.480469 266.863281 144.199219 266.863281 L 143.917969 266.863281 L 143.917969 267.515625 L 144.199219 267.515625 C 144.417969 267.515625 145.175781 267.492188 146 267.230469 L 146 274.394531 L 144.070312 274.394531 L 144.070312 275.046875 C 144.675781 275.003906 146.152344 275.003906 146.828125 275.003906 C 147.5 275.003906 148.976562 275.003906 149.585938 275.046875 L 149.585938 274.394531 L 147.652344 274.394531 Z M 147.652344 266.429688 "
     id="path30" />
  <path
     fill-rule="nonzero"
     fill="rgb(39.215088%, 39.215088%, 39.215088%)"
     fill-opacity="1"
     d="M 155.394531 271.574219 C 155.394531 269.859375 154.9375 268.339844 154.289062 267.1875 C 153.355469 265.582031 152.09375 264.648438 151.832031 264.648438 C 151.726562 264.648438 151.59375 264.691406 151.59375 264.84375 C 151.59375 264.929688 151.59375 264.953125 151.832031 265.167969 C 153.570312 266.949219 154.046875 269.402344 154.046875 271.574219 C 154.046875 274.308594 153.332031 276.480469 151.8125 278.023438 C 151.59375 278.21875 151.59375 278.238281 151.59375 278.304688 C 151.59375 278.457031 151.726562 278.5 151.832031 278.5 C 152.074219 278.5 152.660156 277.980469 152.898438 277.738281 C 155.070312 275.613281 155.394531 273.050781 155.394531 271.574219 Z M 155.394531 271.574219 "
     id="path32" />
  <path
     fill-rule="nonzero"
     fill="rgb(39.215088%, 39.215088%, 39.215088%)"
     fill-opacity="1"
     d="M 213.054688 278.578125 C 212.640625 278.1875 211.75 277.339844 211.164062 275.582031 C 210.796875 274.476562 210.644531 273.214844 210.644531 271.980469 C 210.644531 269.265625 211.339844 267.09375 212.878906 265.550781 C 213.074219 265.335938 213.097656 265.335938 213.097656 265.25 C 213.097656 265.097656 212.945312 265.054688 212.835938 265.054688 C 212.597656 265.054688 212.035156 265.574219 211.773438 265.8125 C 209.625 267.960938 209.296875 270.503906 209.296875 271.980469 C 209.296875 273.714844 209.753906 275.234375 210.40625 276.386719 C 211.316406 277.972656 212.578125 278.90625 212.835938 278.90625 C 212.945312 278.90625 213.097656 278.859375 213.097656 278.710938 C 213.097656 278.644531 213.054688 278.578125 213.054688 278.578125 Z M 213.054688 278.578125 "
     id="path34" />
  <path
     fill-rule="nonzero"
     fill="rgb(39.215088%, 39.215088%, 39.215088%)"
     fill-opacity="1"
     d="M 221.15625 272.371094 L 220.503906 272.371094 C 220.460938 272.652344 220.328125 273.542969 220.132812 273.628906 C 219.984375 273.714844 218.941406 273.714844 218.722656 273.714844 L 216.683594 273.714844 C 217.332031 273.171875 218.070312 272.585938 218.679688 272.128906 C 220.265625 270.957031 221.15625 270.308594 221.15625 269.003906 C 221.15625 267.398438 219.699219 266.378906 217.769531 266.378906 C 216.074219 266.378906 214.773438 267.246094 214.773438 268.484375 C 214.773438 269.308594 215.445312 269.503906 215.769531 269.503906 C 216.226562 269.503906 216.769531 269.199219 216.769531 268.503906 C 216.769531 267.789062 216.183594 267.570312 215.988281 267.507812 C 216.378906 267.179688 216.921875 267.027344 217.421875 267.027344 C 218.59375 267.027344 219.246094 267.960938 219.246094 269.003906 C 219.246094 269.960938 218.722656 270.914062 217.746094 271.890625 L 214.96875 274.734375 C 214.773438 274.886719 214.773438 274.929688 214.773438 275.214844 L 214.773438 275.453125 L 220.722656 275.453125 Z M 221.15625 272.371094 "
     id="path36" />
  <path
     fill-rule="nonzero"
     fill="rgb(39.215088%, 39.215088%, 39.215088%)"
     fill-opacity="1"
     d="M 226.640625 271.980469 C 226.640625 270.261719 226.183594 268.742188 225.53125 267.59375 C 224.597656 265.988281 223.339844 265.054688 223.078125 265.054688 C 222.96875 265.054688 222.839844 265.097656 222.839844 265.25 C 222.839844 265.335938 222.839844 265.355469 223.078125 265.574219 C 224.816406 267.355469 225.292969 269.808594 225.292969 271.980469 C 225.292969 274.714844 224.578125 276.886719 223.058594 278.425781 C 222.839844 278.621094 222.839844 278.644531 222.839844 278.710938 C 222.839844 278.859375 222.96875 278.90625 223.078125 278.90625 C 223.316406 278.90625 223.902344 278.382812 224.144531 278.144531 C 226.3125 276.015625 226.640625 273.453125 226.640625 271.980469 Z M 226.640625 271.980469 "
     id="path38" />
  <path
     fill-rule="nonzero"
     fill="rgb(0%, 0%, 0%)"
     fill-opacity="1"
     d="M 93.679688 277.027344 C 93.992188 277.027344 94.832031 277.027344 94.832031 276.183594 C 94.832031 275.300781 93.945312 275.300781 93.546875 275.300781 L 74.503906 275.300781 C 74.105469 275.300781 73.21875 275.300781 73.21875 276.183594 C 73.21875 277.027344 74.015625 277.027344 74.371094 277.027344 Z M 93.546875 283.359375 C 93.945312 283.359375 94.832031 283.359375 94.832031 282.476562 C 94.832031 281.632812 93.992188 281.632812 93.679688 281.632812 L 74.371094 281.632812 C 74.015625 281.632812 73.21875 281.632812 73.21875 282.476562 C 73.21875 283.359375 74.105469 283.359375 74.503906 283.359375 Z M 93.546875 283.359375 "
     id="path40" />
  <path
     fill-rule="nonzero"
     fill="rgb(39.215088%, 39.215088%, 39.215088%)"
     fill-opacity="1"
     d="M 249.078125 278.921875 C 249.078125 277.898438 248.246094 277.03125 247.1875 277.03125 C 246.167969 277.03125 245.339844 277.898438 245.339844 278.921875 C 245.339844 279.976562 246.167969 280.808594 247.1875 280.808594 C 248.246094 280.808594 249.078125 279.976562 249.078125 278.921875 Z M 249.078125 278.921875 "
     id="path42" />
  <path
     fill-rule="nonzero"
     fill="rgb(39.215088%, 39.215088%, 39.215088%)"
     fill-opacity="1"
     d="M 261.394531 278.921875 C 261.394531 277.898438 260.5625 277.03125 259.503906 277.03125 C 258.484375 277.03125 257.652344 277.898438 257.652344 278.921875 C 257.652344 279.976562 258.484375 280.808594 259.503906 280.808594 C 260.5625 280.808594 261.394531 279.976562 261.394531 278.921875 Z M 261.394531 278.921875 "
     id="path44" />
  <path
     fill-rule="nonzero"
     fill="rgb(39.215088%, 39.215088%, 39.215088%)"
     fill-opacity="1"
     d="M 273.683594 278.921875 C 273.683594 277.898438 272.855469 277.03125 271.796875 277.03125 C 270.777344 277.03125 269.945312 277.898438 269.945312 278.921875 C 269.945312 279.976562 270.777344 280.808594 271.796875 280.808594 C 272.855469 280.808594 273.683594 279.976562 273.683594 278.921875 Z M 273.683594 278.921875 "
     id="path46" />
  <path
     fill="none"
     stroke-width="1.984252"
     stroke-linecap="butt"
     stroke-linejoin="miter"
     stroke="rgb(39.215088%, 39.215088%, 39.215088%)"
     stroke-opacity="1"
     stroke-miterlimit="4"
     d="M 145.867188 249 C 156.957031 236.382812 169.703125 232.210938 186.546875 249 "
     id="path48" />
  <path
     fill-rule="evenodd"
     fill="rgb(39.215088%, 39.215088%, 39.215088%)"
     fill-opacity="1"
     stroke-width="0.374774"
     stroke-linecap="butt"
     stroke-linejoin="miter"
     stroke="rgb(39.215088%, 39.215088%, 39.215088%)"
     stroke-opacity="1"
     stroke-miterlimit="4"
     d="M -216.397757 -31.639265 L -214.990754 -33.045514 L -219.909432 -31.639221 L -214.989549 -30.234216 Z M -216.397757 -31.639265 "
     transform="matrix(-1, -0.996688, 0.996688, -1, 0, 0)"
     id="path50" />
  <path
     fill="none"
     stroke-width="1.984252"
     stroke-linecap="butt"
     stroke-linejoin="miter"
     stroke="rgb(39.215088%, 39.215088%, 39.215088%)"
     stroke-opacity="1"
     stroke-miterlimit="4"
     d="M 216 249 C 227.09375 236.382812 239.835938 232.210938 256.683594 249 "
     id="path52" />
  <path
     fill-rule="evenodd"
     fill="rgb(39.215088%, 39.215088%, 39.215088%)"
     fill-opacity="1"
     stroke-width="0.374774"
     stroke-linecap="butt"
     stroke-linejoin="miter"
     stroke="rgb(39.215088%, 39.215088%, 39.215088%)"
     stroke-opacity="1"
     stroke-miterlimit="4"
     d="M -251.580495 3.426948 L -250.175453 2.022653 L -255.09217 3.426992 L -250.174247 4.833951 Z M -251.580495 3.426948 "
     transform="matrix(-1, -0.996688, 0.996688, -1, 0, 0)"
     id="path54" />
  <path
     fill="none"
     stroke-width="1.984252"
     stroke-linecap="butt"
     stroke-linejoin="miter"
     stroke="rgb(39.215088%, 39.215088%, 39.215088%)"
     stroke-opacity="1"
     stroke-miterlimit="4"
     d="M 263.285156 249 C 274.375 236.382812 287.121094 232.210938 303.964844 249 "
     id="path56" />
  <path
     fill-rule="evenodd"
     fill="rgb(39.215088%, 39.215088%, 39.215088%)"
     fill-opacity="1"
     stroke-width="0.374775"
     stroke-linecap="butt"
     stroke-linejoin="miter"
     stroke="rgb(39.215088%, 39.215088%, 39.215088%)"
     stroke-opacity="1"
     stroke-miterlimit="4"
     d="M -275.301659 27.069272 L -273.894655 25.663023 L -278.813335 27.069314 L -273.89345 28.474323 Z M -275.301659 27.069272 "
     transform="matrix(-1, -0.996687, 0.996687, -1, 0, 0)"
     id="path58" />
  <path
     fill-rule="nonzero"
     fill="rgb(39.215088%, 39.215088%, 39.215088%)"
     fill-opacity="1"
     d="M 36.410156 286.238281 L 38.871094 282.632812 C 39.261719 282.074219 39.878906 281.515625 41.441406 281.488281 L 41.441406 280.929688 C 40.773438 280.957031 39.933594 280.984375 39.484375 280.984375 C 38.757812 280.984375 37.890625 280.984375 37.195312 280.929688 L 37.195312 281.488281 C 37.890625 281.515625 38.285156 281.90625 38.285156 282.296875 C 38.285156 282.492188 38.257812 282.523438 38.144531 282.71875 L 36.101562 285.738281 L 33.8125 282.296875 C 33.753906 282.242188 33.671875 282.101562 33.671875 282.019531 C 33.671875 281.824219 34.0625 281.515625 34.84375 281.488281 L 34.84375 280.929688 C 34.203125 280.984375 32.917969 280.984375 32.246094 280.984375 C 31.6875 280.984375 30.566406 280.984375 29.925781 280.929688 L 29.925781 281.488281 L 30.261719 281.488281 C 31.238281 281.488281 31.574219 281.597656 31.910156 282.101562 L 35.179688 287.078125 L 32.273438 291.382812 C 32.023438 291.746094 31.492188 292.558594 29.671875 292.558594 L 29.671875 293.117188 C 30.316406 293.089844 31.070312 293.0625 31.65625 293.0625 C 32.328125 293.0625 33.308594 293.0625 33.949219 293.117188 L 33.949219 292.558594 C 33.113281 292.558594 32.832031 292.054688 32.832031 291.746094 C 32.832031 291.578125 32.886719 291.523438 33 291.328125 L 35.542969 287.582031 L 38.339844 291.832031 C 38.394531 291.914062 38.453125 291.972656 38.453125 292.027344 C 38.453125 292.25 38.058594 292.558594 37.277344 292.558594 L 37.277344 293.117188 C 37.890625 293.0625 39.207031 293.0625 39.878906 293.0625 C 40.632812 293.0625 41.441406 293.089844 42.199219 293.117188 L 42.199219 292.558594 L 41.863281 292.558594 C 40.941406 292.558594 40.546875 292.472656 40.183594 291.914062 Z M 36.410156 286.238281 "
     id="path60" />
  <path
     fill-rule="nonzero"
     fill="rgb(39.215088%, 39.215088%, 39.215088%)"
     fill-opacity="1"
     d="M 49.78125 286.238281 L 52.238281 282.632812 C 52.632812 282.074219 53.246094 281.515625 54.8125 281.488281 L 54.8125 280.929688 C 54.140625 280.957031 53.300781 280.984375 52.855469 280.984375 C 52.128906 280.984375 51.261719 280.984375 50.5625 280.929688 L 50.5625 281.488281 C 51.261719 281.515625 51.652344 281.90625 51.652344 282.296875 C 51.652344 282.492188 51.625 282.523438 51.511719 282.71875 L 49.472656 285.738281 L 47.179688 282.296875 C 47.125 282.242188 47.039062 282.101562 47.039062 282.019531 C 47.039062 281.824219 47.429688 281.515625 48.214844 281.488281 L 48.214844 280.929688 C 47.570312 280.984375 46.285156 280.984375 45.613281 280.984375 C 45.054688 280.984375 43.9375 280.984375 43.292969 280.929688 L 43.292969 281.488281 L 43.628906 281.488281 C 44.609375 281.488281 44.941406 281.597656 45.277344 282.101562 L 48.550781 287.078125 L 45.640625 291.382812 C 45.390625 291.746094 44.859375 292.558594 43.042969 292.558594 L 43.042969 293.117188 C 43.683594 293.089844 44.441406 293.0625 45.027344 293.0625 C 45.699219 293.0625 46.675781 293.0625 47.320312 293.117188 L 47.320312 292.558594 C 46.480469 292.558594 46.203125 292.054688 46.203125 291.746094 C 46.203125 291.578125 46.257812 291.523438 46.367188 291.328125 L 48.914062 287.582031 L 51.707031 291.832031 C 51.765625 291.914062 51.820312 291.972656 51.820312 292.027344 C 51.820312 292.25 51.429688 292.558594 50.644531 292.558594 L 50.644531 293.117188 C 51.261719 293.0625 52.574219 293.0625 53.246094 293.0625 C 54 293.0625 54.8125 293.089844 55.566406 293.117188 L 55.566406 292.558594 L 55.230469 292.558594 C 54.308594 292.558594 53.917969 292.472656 53.554688 291.914062 Z M 49.78125 286.238281 "
     id="path62" />
  <path
     fill-rule="nonzero"
     fill="rgb(39.215088%, 39.215088%, 39.215088%)"
     fill-opacity="1"
     d="M 136.4375 286.238281 L 138.894531 282.632812 C 139.289062 282.074219 139.902344 281.515625 141.46875 281.488281 L 141.46875 280.929688 C 140.796875 280.957031 139.957031 280.984375 139.511719 280.984375 C 138.785156 280.984375 137.917969 280.984375 137.21875 280.929688 L 137.21875 281.488281 C 137.917969 281.515625 138.308594 281.90625 138.308594 282.296875 C 138.308594 282.492188 138.28125 282.523438 138.167969 282.71875 L 136.128906 285.738281 L 133.835938 282.296875 C 133.78125 282.242188 133.695312 282.101562 133.695312 282.019531 C 133.695312 281.824219 134.085938 281.515625 134.871094 281.488281 L 134.871094 280.929688 C 134.226562 280.984375 132.941406 280.984375 132.269531 280.984375 C 131.710938 280.984375 130.59375 280.984375 129.949219 280.929688 L 129.949219 281.488281 L 130.285156 281.488281 C 131.265625 281.488281 131.597656 281.597656 131.933594 282.101562 L 135.207031 287.078125 L 132.296875 291.382812 C 132.046875 291.746094 131.515625 292.558594 129.699219 292.558594 L 129.699219 293.117188 C 130.339844 293.089844 131.097656 293.0625 131.683594 293.0625 C 132.355469 293.0625 133.332031 293.0625 133.976562 293.117188 L 133.976562 292.558594 C 133.136719 292.558594 132.859375 292.054688 132.859375 291.746094 C 132.859375 291.578125 132.914062 291.523438 133.023438 291.328125 L 135.570312 287.582031 L 138.363281 291.832031 C 138.421875 291.914062 138.476562 291.972656 138.476562 292.027344 C 138.476562 292.25 138.085938 292.558594 137.300781 292.558594 L 137.300781 293.117188 C 137.917969 293.0625 139.230469 293.0625 139.902344 293.0625 C 140.65625 293.0625 141.46875 293.089844 142.222656 293.117188 L 142.222656 292.558594 L 141.886719 292.558594 C 140.964844 292.558594 140.574219 292.472656 140.210938 291.914062 Z M 136.4375 286.238281 "
     id="path64" />
  <path
     fill-rule="nonzero"
     fill="rgb(39.215088%, 39.215088%, 39.215088%)"
     fill-opacity="1"
     d="M 149.804688 286.238281 L 152.265625 282.632812 C 152.65625 282.074219 153.269531 281.515625 154.835938 281.488281 L 154.835938 280.929688 C 154.167969 280.957031 153.328125 280.984375 152.878906 280.984375 C 152.152344 280.984375 151.285156 280.984375 150.585938 280.929688 L 150.585938 281.488281 C 151.285156 281.515625 151.679688 281.90625 151.679688 282.296875 C 151.679688 282.492188 151.648438 282.523438 151.539062 282.71875 L 149.496094 285.738281 L 147.203125 282.296875 C 147.148438 282.242188 147.066406 282.101562 147.066406 282.019531 C 147.066406 281.824219 147.457031 281.515625 148.238281 281.488281 L 148.238281 280.929688 C 147.597656 280.984375 146.308594 280.984375 145.640625 280.984375 C 145.082031 280.984375 143.960938 280.984375 143.320312 280.929688 L 143.320312 281.488281 L 143.65625 281.488281 C 144.632812 281.488281 144.96875 281.597656 145.304688 282.101562 L 148.574219 287.078125 L 145.667969 291.382812 C 145.414062 291.746094 144.882812 292.558594 143.066406 292.558594 L 143.066406 293.117188 C 143.710938 293.089844 144.464844 293.0625 145.050781 293.0625 C 145.722656 293.0625 146.703125 293.0625 147.34375 293.117188 L 147.34375 292.558594 C 146.507812 292.558594 146.226562 292.054688 146.226562 291.746094 C 146.226562 291.578125 146.28125 291.523438 146.394531 291.328125 L 148.9375 287.582031 L 151.734375 291.832031 C 151.789062 291.914062 151.84375 291.972656 151.84375 292.027344 C 151.84375 292.25 151.453125 292.558594 150.671875 292.558594 L 150.671875 293.117188 C 151.285156 293.0625 152.601562 293.0625 153.269531 293.0625 C 154.027344 293.0625 154.835938 293.089844 155.59375 293.117188 L 155.59375 292.558594 L 155.257812 292.558594 C 154.332031 292.558594 153.941406 292.472656 153.578125 291.914062 Z M 149.804688 286.238281 "
     id="path66" />
  <path
     fill-rule="nonzero"
     fill="rgb(39.215088%, 39.215088%, 39.215088%)"
     fill-opacity="1"
     d="M 208.039062 286.238281 L 210.496094 282.632812 C 210.890625 282.074219 211.503906 281.515625 213.070312 281.488281 L 213.070312 280.929688 C 212.398438 280.957031 211.558594 280.984375 211.113281 280.984375 C 210.386719 280.984375 209.519531 280.984375 208.820312 280.929688 L 208.820312 281.488281 C 209.519531 281.515625 209.910156 281.90625 209.910156 282.296875 C 209.910156 282.492188 209.882812 282.523438 209.769531 282.71875 L 207.730469 285.738281 L 205.4375 282.296875 C 205.382812 282.242188 205.296875 282.101562 205.296875 282.019531 C 205.296875 281.824219 205.6875 281.515625 206.472656 281.488281 L 206.472656 280.929688 C 205.828125 280.984375 204.542969 280.984375 203.871094 280.984375 C 203.3125 280.984375 202.195312 280.984375 201.550781 280.929688 L 201.550781 281.488281 L 201.886719 281.488281 C 202.867188 281.488281 203.203125 281.597656 203.535156 282.101562 L 206.808594 287.078125 L 203.898438 291.382812 C 203.648438 291.746094 203.117188 292.558594 201.300781 292.558594 L 201.300781 293.117188 C 201.941406 293.089844 202.699219 293.0625 203.285156 293.0625 C 203.957031 293.0625 204.933594 293.0625 205.578125 293.117188 L 205.578125 292.558594 C 204.738281 292.558594 204.460938 292.054688 204.460938 291.746094 C 204.460938 291.578125 204.515625 291.523438 204.628906 291.328125 L 207.171875 287.582031 L 209.964844 291.832031 C 210.023438 291.914062 210.078125 291.972656 210.078125 292.027344 C 210.078125 292.25 209.6875 292.558594 208.90625 292.558594 L 208.90625 293.117188 C 209.519531 293.0625 210.832031 293.0625 211.503906 293.0625 C 212.257812 293.0625 213.070312 293.089844 213.824219 293.117188 L 213.824219 292.558594 L 213.488281 292.558594 C 212.566406 292.558594 212.175781 292.472656 211.8125 291.914062 Z M 208.039062 286.238281 "
     id="path68" />
  <path
     fill-rule="nonzero"
     fill="rgb(39.215088%, 39.215088%, 39.215088%)"
     fill-opacity="1"
     d="M 221.40625 286.238281 L 223.867188 282.632812 C 224.257812 282.074219 224.875 281.515625 226.4375 281.488281 L 226.4375 280.929688 C 225.769531 280.957031 224.929688 280.984375 224.480469 280.984375 C 223.753906 280.984375 222.886719 280.984375 222.1875 280.929688 L 222.1875 281.488281 C 222.886719 281.515625 223.28125 281.90625 223.28125 282.296875 C 223.28125 282.492188 223.25 282.523438 223.140625 282.71875 L 221.097656 285.738281 L 218.804688 282.296875 C 218.75 282.242188 218.667969 282.101562 218.667969 282.019531 C 218.667969 281.824219 219.058594 281.515625 219.839844 281.488281 L 219.839844 280.929688 C 219.199219 280.984375 217.910156 280.984375 217.242188 280.984375 C 216.683594 280.984375 215.5625 280.984375 214.921875 280.929688 L 214.921875 281.488281 L 215.257812 281.488281 C 216.234375 281.488281 216.570312 281.597656 216.90625 282.101562 L 220.175781 287.078125 L 217.269531 291.382812 C 217.015625 291.746094 216.484375 292.558594 214.667969 292.558594 L 214.667969 293.117188 C 215.3125 293.089844 216.066406 293.0625 216.652344 293.0625 C 217.324219 293.0625 218.304688 293.0625 218.945312 293.117188 L 218.945312 292.558594 C 218.109375 292.558594 217.828125 292.054688 217.828125 291.746094 C 217.828125 291.578125 217.882812 291.523438 217.996094 291.328125 L 220.539062 287.582031 L 223.335938 291.832031 C 223.390625 291.914062 223.449219 291.972656 223.449219 292.027344 C 223.449219 292.25 223.054688 292.558594 222.273438 292.558594 L 222.273438 293.117188 C 222.886719 293.0625 224.203125 293.0625 224.875 293.0625 C 225.628906 293.0625 226.4375 293.089844 227.195312 293.117188 L 227.195312 292.558594 L 226.859375 292.558594 C 225.933594 292.558594 225.542969 292.472656 225.179688 291.914062 Z M 221.40625 286.238281 "
     id="path70" />
  <path
     fill="none"
     stroke-width="1.489183"
     stroke-linecap="round"
     stroke-linejoin="round"
     stroke="rgb(39.215088%, 39.215088%, 39.215088%)"
     stroke-opacity="1"
     stroke-miterlimit="4"
     d="M 53.975191 35.158512 C 53.974679 38.764432 51.592205 41.936588 48.127903 42.944183 C 44.6658 43.949842 40.953701 42.546734 39.019957 39.503438 C 37.088414 36.458206 37.39781 32.502167 39.783954 29.795529 C 42.167898 27.090828 46.053416 26.286541 49.318878 27.821227 "
     transform="matrix(0.880571, 1, 1, -0.880571, 0, 0)"
     id="path72" />
  <path
     fill-rule="evenodd"
     fill="rgb(39.215088%, 39.215088%, 39.215088%)"
     fill-opacity="1"
     stroke-width="0.485491"
     stroke-linecap="butt"
     stroke-linejoin="miter"
     stroke="rgb(39.215088%, 39.215088%, 39.215088%)"
     stroke-opacity="1"
     stroke-miterlimit="4"
     d="M -66.853369 -5.105764 L -65.033089 -6.926158 L -71.404212 -5.10562 L -65.032974 -3.285484 Z M -66.853369 -5.105764 "
     transform="matrix(-1, -0.433439, -0.433439, 1, 0, 0)"
     id="path74" />
  <path
     fill="none"
     stroke-width="1.489183"
     stroke-linecap="round"
     stroke-linejoin="round"
     stroke="rgb(39.215088%, 39.215088%, 39.215088%)"
     stroke-opacity="1"
     stroke-miterlimit="4"
     d="M -121.40133 -164.00376 C -121.401842 -160.39784 -123.782378 -157.223484 -127.246681 -156.215888 C -130.710721 -155.21243 -134.420882 -156.613338 -136.354363 -159.660771 C -138.288107 -162.704066 -137.974574 -166.659842 -135.59063 -169.364542 C -133.204485 -172.071181 -129.318967 -172.875468 -126.055706 -171.338845 "
     transform="matrix(-0.880571, 1, -1, -0.880571, 0, 0)"
     id="path76" />
  <path
     fill-rule="evenodd"
     fill="rgb(39.215088%, 39.215088%, 39.215088%)"
     fill-opacity="1"
     stroke-width="0.485491"
     stroke-linecap="butt"
     stroke-linejoin="miter"
     stroke="rgb(39.215088%, 39.215088%, 39.215088%)"
     stroke-opacity="1"
     stroke-miterlimit="4"
     d="M 230.815774 123.919558 L 232.63748 122.095875 L 226.261642 123.918276 L 232.636169 125.739838 Z M 230.815774 123.919558 "
     transform="matrix(1, -0.433439, 0.433439, 1, 0, 0)"
     id="path78" />
  <path
     fill="none"
     stroke-width="2.834646"
     stroke-linecap="round"
     stroke-linejoin="round"
     stroke="rgb(39.215088%, 39.215088%, 39.215088%)"
     stroke-opacity="1"
     stroke-miterlimit="4"
     d="M 204.445312 107.796875 C 204.445312 123.066406 192.066406 135.445312 176.796875 135.445312 C 161.527344 135.445312 149.148438 123.066406 149.148438 107.796875 C 149.148438 92.527344 161.527344 80.148438 176.796875 80.148438 C 192.066406 80.148438 204.445312 92.527344 204.445312 107.796875 Z M 204.445312 107.796875 "
     id="path80" />
  <path
     fill-rule="evenodd"
     fill="rgb(39.215088%, 39.215088%, 39.215088%)"
     fill-opacity="1"
     d="M 168.457031 108.453125 L 168.445312 107.988281 L 168.414062 107.535156 L 168.363281 107.085938 L 168.289062 106.648438 L 168.199219 106.214844 L 168.089844 105.796875 L 167.960938 105.382812 L 167.8125 104.976562 L 167.652344 104.582031 L 167.472656 104.195312 L 167.277344 103.828125 L 167.0625 103.464844 L 166.832031 103.113281 L 166.59375 102.785156 L 166.335938 102.460938 L 166.066406 102.148438 L 165.785156 101.859375 L 165.492188 101.578125 L 165.1875 101.316406 L 164.871094 101.074219 L 164.542969 100.84375 L 164.203125 100.628906 L 163.855469 100.433594 L 163.496094 100.257812 L 163.128906 100.097656 L 162.753906 99.960938 L 162.375 99.839844 L 161.984375 99.742188 L 161.589844 99.664062 L 161.1875 99.609375 L 160.78125 99.578125 L 160.371094 99.566406 L 160.371094 100.175781 C 162.484375 100.175781 165.960938 101.898438 165.960938 108.109375 C 165.960938 114.542969 162.632812 116.585938 160.390625 116.585938 C 158.058594 116.585938 154.808594 114.453125 154.808594 108.109375 C 154.808594 101.828125 158.359375 100.175781 160.371094 100.175781 L 160.371094 99.566406 C 156.023438 99.566406 152.3125 103.445312 152.3125 108.453125 C 152.3125 113.433594 156.050781 117.214844 160.371094 117.214844 C 164.785156 117.214844 168.457031 113.355469 168.457031 108.453125 Z M 168.457031 108.453125 "
     id="path82" />
  <path
     fill-rule="evenodd"
     fill="rgb(39.215088%, 39.215088%, 39.215088%)"
     fill-opacity="1"
     d="M 183.976562 100.175781 L 170.640625 100.175781 L 170.640625 100.925781 L 171.226562 100.925781 C 173.089844 100.925781 173.144531 101.195312 173.144531 102.0625 L 173.144531 114.789062 C 173.144531 115.664062 173.089844 115.929688 171.226562 115.929688 L 170.640625 115.929688 L 170.640625 116.683594 C 171.492188 116.605469 173.390625 116.605469 174.335938 116.605469 C 175.328125 116.605469 177.535156 116.605469 178.414062 116.683594 L 178.414062 115.929688 L 177.605469 115.929688 C 175.300781 115.929688 175.300781 115.617188 175.300781 114.765625 L 175.300781 108.792969 L 177.394531 108.792969 C 179.726562 108.792969 179.96875 109.574219 179.96875 111.636719 L 180.566406 111.636719 L 180.566406 105.203125 L 179.96875 105.203125 C 179.96875 107.242188 179.726562 108.042969 177.394531 108.042969 L 175.300781 108.042969 L 175.300781 101.898438 C 175.300781 101.097656 175.351562 100.925781 176.492188 100.925781 L 179.402344 100.925781 C 183.054688 100.925781 183.652344 102.28125 184.042969 105.636719 L 184.652344 105.636719 Z M 183.976562 100.175781 "
     id="path84" />
  <path
     fill-rule="evenodd"
     fill="rgb(39.215088%, 39.215088%, 39.215088%)"
     fill-opacity="1"
     d="M 199.824219 100.175781 L 186.488281 100.175781 L 186.488281 100.925781 L 187.074219 100.925781 C 188.941406 100.925781 188.996094 101.195312 188.996094 102.0625 L 188.996094 114.789062 C 188.996094 115.664062 188.941406 115.929688 187.074219 115.929688 L 186.488281 115.929688 L 186.488281 116.683594 C 187.34375 116.605469 189.238281 116.605469 190.183594 116.605469 C 191.179688 116.605469 193.386719 116.605469 194.265625 116.683594 L 194.265625 115.929688 L 193.457031 115.929688 C 191.148438 115.929688 191.148438 115.617188 191.148438 114.765625 L 191.148438 108.792969 L 193.246094 108.792969 C 195.574219 108.792969 195.820312 109.574219 195.820312 111.636719 L 196.417969 111.636719 L 196.417969 105.203125 L 195.820312 105.203125 C 195.820312 107.242188 195.574219 108.042969 193.246094 108.042969 L 191.148438 108.042969 L 191.148438 101.898438 C 191.148438 101.097656 191.203125 100.925781 192.34375 100.925781 L 195.253906 100.925781 C 198.902344 100.925781 199.503906 102.28125 199.894531 105.636719 L 200.503906 105.636719 Z M 199.824219 100.175781 "
     id="path86" />
  <path
     fill-rule="evenodd"
     fill="rgb(58.430481%, 72.155762%, 81.959534%)"
     fill-opacity="1"
     stroke-width="2.834646"
     stroke-linecap="round"
     stroke-linejoin="round"
     stroke="rgb(39.215088%, 39.215088%, 39.215088%)"
     stroke-opacity="1"
     stroke-miterlimit="4"
     d="M 275.3125 178.664062 C 275.3125 193.933594 262.933594 206.3125 247.664062 206.3125 C 232.394531 206.3125 220.015625 193.933594 220.015625 178.664062 C 220.015625 163.394531 232.394531 151.015625 247.664062 151.015625 C 262.933594 151.015625 275.3125 163.394531 275.3125 178.664062 Z M 275.3125 178.664062 "
     id="path88" />
  <path
     fill-rule="nonzero"
     fill="rgb(39.215088%, 39.215088%, 39.215088%)"
     fill-opacity="1"
     d="M 249.050781 182.351562 C 248.902344 182.003906 248.851562 182.003906 248.480469 182.003906 L 245.824219 182.003906 L 245.824219 182.5 L 246.199219 182.5 C 247.414062 182.5 247.4375 182.675781 247.4375 183.246094 L 247.4375 191.15625 C 247.4375 191.578125 247.4375 192.320312 245.824219 192.320312 L 245.824219 192.816406 C 246.371094 192.792969 247.140625 192.765625 247.660156 192.765625 C 248.179688 192.765625 248.976562 192.792969 249.519531 192.816406 L 249.519531 192.320312 C 247.882812 192.320312 247.882812 191.578125 247.882812 191.15625 L 247.882812 182.625 L 247.910156 182.625 L 251.726562 192.46875 C 251.800781 192.667969 251.875 192.816406 252.023438 192.816406 C 252.199219 192.816406 252.25 192.691406 252.324219 192.519531 L 256.214844 182.5 L 256.214844 191.578125 C 256.214844 192.148438 256.191406 192.320312 254.976562 192.320312 L 254.605469 192.320312 L 254.605469 192.816406 C 255.175781 192.765625 256.265625 192.765625 256.886719 192.765625 C 257.480469 192.765625 258.546875 192.765625 259.140625 192.816406 L 259.140625 192.320312 L 258.746094 192.320312 C 257.53125 192.320312 257.503906 192.148438 257.503906 191.578125 L 257.503906 183.246094 C 257.503906 182.675781 257.53125 182.5 258.746094 182.5 L 259.140625 182.5 L 259.140625 182.003906 L 256.464844 182.003906 C 256.042969 182.003906 256.042969 182.03125 255.941406 182.304688 L 252.472656 191.230469 Z M 249.050781 182.351562 "
     id="path90" />
  <path
     fill-rule="nonzero"
     fill="rgb(39.215088%, 39.215088%, 39.215088%)"
     fill-opacity="1"
     d="M 265.253906 186.667969 L 263.21875 186.195312 C 262.230469 185.949219 261.632812 185.105469 261.632812 184.1875 C 261.632812 183.070312 262.476562 182.105469 263.714844 182.105469 C 266.34375 182.105469 266.691406 184.707031 266.792969 185.402344 C 266.816406 185.503906 266.816406 185.601562 266.988281 185.601562 C 267.1875 185.601562 267.1875 185.527344 267.1875 185.230469 L 267.1875 182.054688 C 267.1875 181.78125 267.1875 181.660156 267.015625 181.660156 C 266.914062 181.660156 266.890625 181.683594 266.792969 181.882812 L 266.222656 182.773438 C 265.75 182.304688 265.105469 181.660156 263.691406 181.660156 C 261.929688 181.660156 260.617188 183.046875 260.617188 184.734375 C 260.617188 186.046875 261.460938 187.214844 262.675781 187.632812 C 262.847656 187.683594 263.667969 187.882812 264.78125 188.15625 C 265.203125 188.253906 265.675781 188.378906 266.121094 188.949219 C 266.445312 189.371094 266.617188 189.890625 266.617188 190.410156 C 266.617188 191.527344 265.824219 192.667969 264.484375 192.667969 C 264.039062 192.667969 262.824219 192.59375 261.980469 191.824219 C 261.0625 190.957031 261.015625 189.964844 261.015625 189.394531 C 260.988281 189.222656 260.863281 189.222656 260.816406 189.222656 C 260.617188 189.222656 260.617188 189.34375 260.617188 189.617188 L 260.617188 192.792969 C 260.617188 193.066406 260.617188 193.164062 260.789062 193.164062 C 260.890625 193.164062 260.914062 193.140625 261.015625 192.964844 C 261.015625 192.941406 261.0625 192.890625 261.585938 192.046875 C 262.078125 192.59375 263.097656 193.164062 264.511719 193.164062 C 266.34375 193.164062 267.609375 191.625 267.609375 189.867188 C 267.609375 188.304688 266.566406 186.988281 265.253906 186.667969 Z M 265.253906 186.667969 "
     id="path92" />
  <path
     fill-rule="nonzero"
     fill="rgb(39.215088%, 39.215088%, 39.215088%)"
     fill-opacity="1"
     d="M 249.582031 164.230469 L 228.21875 164.230469 L 227.5625 172.117188 L 228.441406 172.117188 C 228.933594 166.476562 229.425781 165.328125 234.738281 165.328125 C 235.339844 165.328125 236.273438 165.328125 236.601562 165.382812 C 237.367188 165.546875 237.367188 165.929688 237.367188 166.695312 L 237.367188 185.15625 C 237.367188 186.304688 237.367188 186.796875 233.699219 186.796875 L 232.273438 186.796875 L 232.273438 187.894531 C 233.699219 187.785156 237.257812 187.785156 238.902344 187.785156 C 240.492188 187.785156 244.105469 187.785156 245.53125 187.894531 L 245.53125 186.796875 L 244.105469 186.796875 C 240.433594 186.796875 240.433594 186.304688 240.433594 185.15625 L 240.433594 166.695312 C 240.433594 166.039062 240.433594 165.546875 241.09375 165.382812 C 241.476562 165.328125 242.40625 165.328125 243.066406 165.328125 C 248.378906 165.328125 248.871094 166.476562 249.363281 172.117188 L 250.242188 172.117188 Z M 249.582031 164.230469 "
     id="path94" />
  <path
     fill-rule="nonzero"
     fill="rgb(39.215088%, 39.215088%, 39.215088%)"
     fill-opacity="1"
     d="M 329.105469 116.214844 C 329.105469 112.988281 326.722656 110.410156 323.847656 110.410156 C 320.996094 110.410156 318.589844 112.941406 318.589844 116.214844 C 318.589844 119.460938 321.019531 121.917969 323.847656 121.917969 C 326.722656 121.917969 329.105469 119.410156 329.105469 116.214844 Z M 323.847656 121.496094 C 322.335938 121.496094 320.203125 120.105469 320.203125 115.988281 C 320.203125 111.898438 322.53125 110.808594 323.847656 110.808594 C 325.210938 110.808594 327.46875 111.921875 327.46875 115.988281 C 327.46875 120.179688 325.308594 121.496094 323.847656 121.496094 Z M 323.847656 121.496094 "
     id="path96" />
  <path
     fill-rule="nonzero"
     fill="rgb(39.215088%, 39.215088%, 39.215088%)"
     fill-opacity="1"
     d="M 335.523438 115.417969 L 333.492188 114.949219 C 332.5 114.699219 331.90625 113.859375 331.90625 112.941406 C 331.90625 111.824219 332.746094 110.855469 333.988281 110.855469 C 336.617188 110.855469 336.964844 113.460938 337.0625 114.15625 C 337.085938 114.253906 337.085938 114.355469 337.261719 114.355469 C 337.457031 114.355469 337.457031 114.277344 337.457031 113.980469 L 337.457031 110.808594 C 337.457031 110.535156 337.457031 110.410156 337.285156 110.410156 C 337.1875 110.410156 337.160156 110.4375 337.0625 110.632812 L 336.492188 111.527344 C 336.019531 111.054688 335.375 110.410156 333.960938 110.410156 C 332.203125 110.410156 330.886719 111.800781 330.886719 113.484375 C 330.886719 114.800781 331.730469 115.964844 332.945312 116.386719 C 333.121094 116.4375 333.9375 116.636719 335.054688 116.90625 C 335.476562 117.007812 335.945312 117.128906 336.394531 117.699219 C 336.714844 118.121094 336.886719 118.644531 336.886719 119.164062 C 336.886719 120.28125 336.09375 121.421875 334.757812 121.421875 C 334.308594 121.421875 333.09375 121.347656 332.25 120.578125 C 331.335938 119.710938 331.285156 118.71875 331.285156 118.148438 C 331.257812 117.972656 331.136719 117.972656 331.085938 117.972656 C 330.886719 117.972656 330.886719 118.097656 330.886719 118.371094 L 330.886719 121.542969 C 330.886719 121.816406 330.886719 121.917969 331.0625 121.917969 C 331.160156 121.917969 331.183594 121.890625 331.285156 121.71875 C 331.285156 121.695312 331.335938 121.644531 331.855469 120.800781 C 332.351562 121.347656 333.367188 121.917969 334.78125 121.917969 C 336.617188 121.917969 337.878906 120.378906 337.878906 118.617188 C 337.878906 117.054688 336.839844 115.742188 335.523438 115.417969 Z M 335.523438 115.417969 "
     id="path98" />
  <path
     fill-rule="nonzero"
     fill="rgb(39.215088%, 39.215088%, 39.215088%)"
     fill-opacity="1"
     d="M 320.761719 93.503906 L 299.398438 93.503906 L 298.738281 101.390625 L 299.617188 101.390625 C 300.109375 95.75 300.601562 94.597656 305.914062 94.597656 C 306.519531 94.597656 307.449219 94.597656 307.777344 94.652344 C 308.542969 94.816406 308.542969 95.203125 308.542969 95.96875 L 308.542969 114.425781 C 308.542969 115.578125 308.542969 116.070312 304.875 116.070312 L 303.449219 116.070312 L 303.449219 117.167969 C 304.875 117.058594 308.433594 117.058594 310.078125 117.058594 C 311.667969 117.058594 315.28125 117.058594 316.707031 117.167969 L 316.707031 116.070312 L 315.28125 116.070312 C 311.613281 116.070312 311.613281 115.578125 311.613281 114.425781 L 311.613281 95.96875 C 311.613281 95.3125 311.613281 94.816406 312.269531 94.652344 C 312.652344 94.597656 313.585938 94.597656 314.242188 94.597656 C 319.554688 94.597656 320.046875 95.75 320.539062 101.390625 L 321.417969 101.390625 Z M 320.761719 93.503906 "
     id="path100" />
  <path
     fill="none"
     stroke-width="2.834646"
     stroke-linecap="round"
     stroke-linejoin="round"
     stroke="rgb(39.215088%, 39.215088%, 39.215088%)"
     stroke-opacity="1"
     stroke-miterlimit="4"
     d="M 346.179688 107.796875 C 346.179688 123.066406 333.800781 135.445312 318.53125 135.445312 C 303.261719 135.445312 290.882812 123.066406 290.882812 107.796875 C 290.882812 92.527344 303.261719 80.148438 318.53125 80.148438 C 333.800781 80.148438 346.179688 92.527344 346.179688 107.796875 Z M 346.179688 107.796875 "
     id="path102" />
  <path
     fill-rule="nonzero"
     fill="rgb(39.215088%, 39.215088%, 39.215088%)"
     fill-opacity="1"
     d="M 34.363281 94.367188 L 13.003906 94.367188 L 12.34375 102.253906 L 13.222656 102.253906 C 13.714844 96.613281 14.207031 95.460938 19.519531 95.460938 C 20.125 95.460938 21.054688 95.460938 21.382812 95.515625 C 22.148438 95.679688 22.148438 96.0625 22.148438 96.832031 L 22.148438 115.289062 C 22.148438 116.441406 22.148438 116.933594 18.480469 116.933594 L 17.054688 116.933594 L 17.054688 118.03125 C 18.480469 117.917969 22.039062 117.917969 23.683594 117.917969 C 25.273438 117.917969 28.886719 117.917969 30.3125 118.03125 L 30.3125 116.933594 L 28.886719 116.933594 C 25.21875 116.933594 25.21875 116.441406 25.21875 115.289062 L 25.21875 96.832031 C 25.21875 96.171875 25.21875 95.679688 25.875 95.515625 C 26.257812 95.460938 27.1875 95.460938 27.847656 95.460938 C 33.160156 95.460938 33.652344 96.613281 34.144531 102.253906 L 35.023438 102.253906 Z M 34.363281 94.367188 "
     id="path104" />
  <path
     fill-rule="nonzero"
     fill="rgb(39.215088%, 39.215088%, 39.215088%)"
     fill-opacity="1"
     d="M 42.894531 116.648438 C 42.894531 113.425781 40.515625 110.84375 37.640625 110.84375 C 34.789062 110.84375 32.382812 113.375 32.382812 116.648438 C 32.382812 119.894531 34.8125 122.351562 37.640625 122.351562 C 40.515625 122.351562 42.894531 119.847656 42.894531 116.648438 Z M 37.640625 121.929688 C 36.125 121.929688 33.992188 120.539062 33.992188 116.425781 C 33.992188 112.332031 36.324219 111.242188 37.640625 111.242188 C 39.003906 111.242188 41.257812 112.359375 41.257812 116.425781 C 41.257812 120.613281 39.101562 121.929688 37.640625 121.929688 Z M 37.640625 121.929688 "
     id="path106" />
  <path
     fill-rule="nonzero"
     fill="rgb(39.215088%, 39.215088%, 39.215088%)"
     fill-opacity="1"
     d="M 47.605469 111.539062 C 47.457031 111.191406 47.40625 111.191406 47.035156 111.191406 L 44.382812 111.191406 L 44.382812 111.6875 L 44.753906 111.6875 C 45.96875 111.6875 45.992188 111.863281 45.992188 112.433594 L 45.992188 120.34375 C 45.992188 120.765625 45.992188 121.507812 44.382812 121.507812 L 44.382812 122.003906 C 44.925781 121.980469 45.695312 121.953125 46.21875 121.953125 C 46.738281 121.953125 47.53125 121.980469 48.078125 122.003906 L 48.078125 121.507812 C 46.441406 121.507812 46.441406 120.765625 46.441406 120.34375 L 46.441406 111.8125 L 46.464844 111.8125 L 50.285156 121.65625 C 50.359375 121.855469 50.433594 122.003906 50.582031 122.003906 C 50.753906 122.003906 50.804688 121.878906 50.878906 121.707031 L 54.773438 111.6875 L 54.773438 120.765625 C 54.773438 121.335938 54.746094 121.507812 53.53125 121.507812 L 53.160156 121.507812 L 53.160156 122.003906 C 53.730469 121.953125 54.820312 121.953125 55.441406 121.953125 C 56.035156 121.953125 57.101562 121.953125 57.699219 122.003906 L 57.699219 121.507812 L 57.300781 121.507812 C 56.085938 121.507812 56.0625 121.335938 56.0625 120.765625 L 56.0625 112.433594 C 56.0625 111.863281 56.085938 111.6875 57.300781 111.6875 L 57.699219 111.6875 L 57.699219 111.191406 L 55.019531 111.191406 C 54.597656 111.191406 54.597656 111.21875 54.5 111.488281 L 51.027344 120.417969 Z M 47.605469 111.539062 "
     id="path108" />
  <path
     fill="none"
     stroke-width="2.834646"
     stroke-linecap="round"
     stroke-linejoin="round"
     stroke="rgb(39.215088%, 39.215088%, 39.215088%)"
     stroke-opacity="1"
     stroke-miterlimit="4"
     d="M 62.714844 107.796875 C 62.714844 123.066406 50.335938 135.445312 35.066406 135.445312 C 19.796875 135.445312 7.417969 123.066406 7.417969 107.796875 C 7.417969 92.527344 19.796875 80.148438 35.066406 80.148438 C 50.335938 80.148438 62.714844 92.527344 62.714844 107.796875 Z M 62.714844 107.796875 "
     id="path110" />
  <path
     fill="none"
     stroke-width="1.646426"
     stroke-linecap="round"
     stroke-linejoin="round"
     stroke="rgb(100%, 83.135986%, 16.470337%)"
     stroke-opacity="1"
     stroke-miterlimit="4"
     d="M 52.117154 -156.846575 C 52.117629 -151.41701 48.051424 -146.847889 42.65931 -146.220399 C 37.268145 -145.589248 32.25806 -149.095893 31.005984 -154.380872 C 29.754855 -159.662191 32.656649 -165.046818 37.757623 -166.903565 "
     transform="matrix(1, -0.259086, -0.259086, -1, 0, 0)"
     id="path112" />
  <path
     fill-rule="evenodd"
     fill="rgb(100%, 83.135986%, 16.470337%)"
     fill-opacity="1"
     stroke-width="0.451474"
     stroke-linecap="butt"
     stroke-linejoin="miter"
     stroke="rgb(100%, 83.135986%, 16.470337%)"
     stroke-opacity="1"
     stroke-miterlimit="4"
     d="M -93.153651 147.997414 L -91.46012 146.304262 L -97.384194 147.998185 L -91.4605 149.690945 Z M -93.153651 147.997414 "
     transform="matrix(-1, -0.0958456, -0.0958456, 1, 0, 0)"
     id="path114" />
  <path
     fill="none"
     stroke-width="1.646426"
     stroke-linecap="round"
     stroke-linejoin="round"
     stroke="rgb(100%, 83.135986%, 16.470337%)"
     stroke-opacity="1"
     stroke-miterlimit="4"
     d="M -226.574166 131.909226 C -226.573692 137.33879 -230.639897 141.907912 -236.03201 142.535402 C -241.426836 143.167501 -246.436921 139.660856 -247.688998 134.375877 C -248.940126 129.094558 -246.038333 123.709931 -240.937358 121.853184 "
     transform="matrix(-1, 0.259086, 0.259086, 1, 0, 0)"
     id="path116" />
  <path
     fill-rule="evenodd"
     fill="rgb(100%, 83.135986%, 16.470337%)"
     fill-opacity="1"
     stroke-width="0.451474"
     stroke-linecap="butt"
     stroke-linejoin="miter"
     stroke="rgb(100%, 83.135986%, 16.470337%)"
     stroke-opacity="1"
     stroke-miterlimit="4"
     d="M 277.702773 -33.008411 L 279.396305 -34.701562 L 273.46836 -33.008011 L 279.395925 -31.31488 Z M 277.702773 -33.008411 "
     transform="matrix(1, 0.0958456, 0.0958456, -1, 0, 0)"
     id="path118" />
  <path
     fill="none"
     stroke-width="1.984252"
     stroke-linecap="butt"
     stroke-linejoin="miter"
     stroke="rgb(100%, 59.214783%, 43.920898%)"
     stroke-opacity="1"
     stroke-miterlimit="4"
     d="M 126 158.25 L 152.25 132 "
     id="path120" />
  <path
     fill-rule="evenodd"
     fill="rgb(100%, 59.214783%, 43.920898%)"
     fill-opacity="1"
     stroke-width="0.374154"
     stroke-linecap="butt"
     stroke-linejoin="miter"
     stroke="rgb(100%, 59.214783%, 43.920898%)"
     stroke-opacity="1"
     stroke-miterlimit="4"
     d="M -8.441406 -142.125 L -7.039062 -143.527344 L -11.949219 -142.125 L -7.039062 -140.722656 Z M -8.441406 -142.125 "
     transform="matrix(-1, 1, -1, -1, 0, 0)"
     id="path122" />
  <path
     fill="none"
     stroke-width="1.984252"
     stroke-linecap="butt"
     stroke-linejoin="miter"
     stroke="rgb(100%, 59.214783%, 43.920898%)"
     stroke-opacity="1"
     stroke-miterlimit="4"
     d="M 228 57 L 201.75 83.25 "
     id="path124" />
  <path
     fill-rule="evenodd"
     fill="rgb(100%, 59.214783%, 43.920898%)"
     fill-opacity="1"
     stroke-width="0.374154"
     stroke-linecap="butt"
     stroke-linejoin="miter"
     stroke="rgb(100%, 59.214783%, 43.920898%)"
     stroke-opacity="1"
     stroke-miterlimit="4"
     d="M 60.933594 142.5 L 62.335938 141.097656 L 57.425781 142.5 L 62.335938 143.902344 Z M 60.933594 142.5 "
     transform="matrix(1, -1, 1, 1, 0, 0)"
     id="path126" />
  <path
     fill="none"
     stroke-width="1.984252"
     stroke-linecap="butt"
     stroke-linejoin="miter"
     stroke="rgb(39.215088%, 39.215088%, 39.215088%)"
     stroke-opacity="1"
     stroke-miterlimit="4"
     d="M 127.5 58.195312 L 153.75 84.445312 "
     id="path128" />
  <path
     fill-rule="evenodd"
     fill="rgb(39.215088%, 39.215088%, 39.215088%)"
     fill-opacity="1"
     stroke-width="0.374154"
     stroke-linecap="butt"
     stroke-linejoin="miter"
     stroke="rgb(39.215088%, 39.215088%, 39.215088%)"
     stroke-opacity="1"
     stroke-miterlimit="4"
     d="M -117.414062 34.652344 L -116.011719 33.25 L -120.921875 34.652344 L -116.011719 36.054688 Z M -117.414062 34.652344 "
     transform="matrix(-1, -1, 1, -1, 0, 0)"
     id="path130" />
  <path
     fill="none"
     stroke-width="1.984252"
     stroke-linecap="butt"
     stroke-linejoin="miter"
     stroke="rgb(39.215088%, 39.215088%, 39.215088%)"
     stroke-opacity="1"
     stroke-miterlimit="4"
     d="M 228.304688 158.25 L 202.054688 132 "
     id="path132" />
  <path
     fill-rule="evenodd"
     fill="rgb(39.215088%, 39.215088%, 39.215088%)"
     fill-opacity="1"
     stroke-width="0.374154"
     stroke-linecap="butt"
     stroke-linejoin="miter"
     stroke="rgb(39.215088%, 39.215088%, 39.215088%)"
     stroke-opacity="1"
     stroke-miterlimit="4"
     d="M 168.710938 -35.027344 L 170.113281 -36.429688 L 165.203125 -35.027344 L 170.113281 -33.625 Z M 168.710938 -35.027344 "
     transform="matrix(1, 1, -1, 1, 0, 0)"
     id="path134" />
  <path
     fill="none"
     stroke-width="1.984252"
     stroke-linecap="butt"
     stroke-linejoin="miter"
     stroke="rgb(39.215088%, 39.215088%, 39.215088%)"
     stroke-opacity="1"
     stroke-miterlimit="4"
     d="M 114.542969 62.066406 C 129.574219 88.554688 142.765625 112.601562 118.292969 148.316406 "
     id="path136" />
  <path
     fill-rule="evenodd"
     fill="rgb(39.215088%, 39.215088%, 39.215088%)"
     fill-opacity="1"
     stroke-width="0.436485"
     stroke-linecap="butt"
     stroke-linejoin="miter"
     stroke="rgb(39.215088%, 39.215088%, 39.215088%)"
     stroke-opacity="1"
     stroke-miterlimit="4"
     d="M -43.801486 149.651994 L -42.165317 148.015172 L -47.894964 149.652391 L -42.167323 151.289984 Z M -43.801486 149.651994 "
     transform="matrix(0.685257, -1, 1, 0.685257, 0, 0)"
     id="path138" />
  <path
     fill="none"
     stroke-width="1.984252"
     stroke-linecap="butt"
     stroke-linejoin="miter"
     stroke="rgb(39.215088%, 39.215088%, 39.215088%)"
     stroke-opacity="1"
     stroke-miterlimit="4"
     d="M 239.25 153 C 224.214844 126.511719 211.023438 102.464844 235.5 66.75 "
     id="path140" />
  <path
     fill-rule="evenodd"
     fill="rgb(39.215088%, 39.215088%, 39.215088%)"
     fill-opacity="1"
     stroke-width="0.436485"
     stroke-linecap="butt"
     stroke-linejoin="miter"
     stroke="rgb(39.215088%, 39.215088%, 39.215088%)"
     stroke-opacity="1"
     stroke-miterlimit="4"
     d="M -62.425908 -191.374553 L -60.789739 -193.011374 L -66.519386 -191.374156 L -60.789087 -189.738384 Z M -62.425908 -191.374553 "
     transform="matrix(-0.685257, 1, -1, -0.685257, 0, 0)"
     id="path142" />
  <path
     fill="none"
     stroke-width="1.984252"
     stroke-linecap="butt"
     stroke-linejoin="miter"
     stroke="rgb(39.215088%, 39.215088%, 39.215088%)"
     stroke-opacity="1"
     stroke-miterlimit="4"
     d="M 131.25 24.75 C 157.738281 9.714844 181.785156 -3.476562 217.5 21 "
     id="path144" />
  <path
     fill-rule="evenodd"
     fill="rgb(39.215088%, 39.215088%, 39.215088%)"
     fill-opacity="1"
     stroke-width="0.436485"
     stroke-linecap="butt"
     stroke-linejoin="miter"
     stroke="rgb(39.215088%, 39.215088%, 39.215088%)"
     stroke-opacity="1"
     stroke-miterlimit="4"
     d="M -155.82854 87.130254 L -154.192371 85.493433 L -159.922018 87.130651 L -154.191718 88.766423 Z M -155.82854 87.130254 "
     transform="matrix(-1, -0.685257, 0.685257, -1, 0, 0)"
     id="path146" />
  <path
     fill="none"
     stroke-width="1.984252"
     stroke-linecap="butt"
     stroke-linejoin="miter"
     stroke="rgb(39.215088%, 39.215088%, 39.215088%)"
     stroke-opacity="1"
     stroke-miterlimit="4"
     d="M 221.832031 190.277344 C 195.34375 205.308594 171.300781 218.5 135.582031 194.027344 "
     id="path148" />
  <path
     fill-rule="evenodd"
     fill="rgb(39.215088%, 39.215088%, 39.215088%)"
     fill-opacity="1"
     stroke-width="0.436485"
     stroke-linecap="butt"
     stroke-linejoin="miter"
     stroke="rgb(39.215088%, 39.215088%, 39.215088%)"
     stroke-opacity="1"
     stroke-miterlimit="4"
     d="M 184.696859 68.806278 L 186.333028 67.169457 L 180.606039 68.804854 L 186.33368 70.442448 Z M 184.696859 68.806278 "
     transform="matrix(1, 0.685257, -0.685257, 1, 0, 0)"
     id="path150" />
  <path
     fill="none"
     stroke-width="1.984252"
     stroke-linecap="butt"
     stroke-linejoin="miter"
     stroke="rgb(39.215088%, 39.215088%, 39.215088%)"
     stroke-opacity="1"
     stroke-miterlimit="4"
     d="M 311.25 81 C 305.929688 63.003906 303.75 58.5 280.5 50.25 "
     id="path152" />
  <path
     fill-rule="evenodd"
     fill="rgb(39.215088%, 39.215088%, 39.215088%)"
     fill-opacity="1"
     stroke-width="0.498671"
     stroke-linecap="butt"
     stroke-linejoin="miter"
     stroke="rgb(39.215088%, 39.215088%, 39.215088%)"
     stroke-opacity="1"
     stroke-miterlimit="4"
     d="M 267.211018 -43.769748 L 269.082265 -45.640769 L 262.538387 -43.771877 L 269.080807 -41.901971 Z M 267.211018 -43.769748 "
     transform="matrix(1, 0.354838, -0.354838, 1, 0, 0)"
     id="path154" />
  <path
     fill="none"
     stroke-width="1.984252"
     stroke-linecap="butt"
     stroke-linejoin="miter"
     stroke="rgb(39.215088%, 39.215088%, 39.215088%)"
     stroke-opacity="1"
     stroke-miterlimit="4"
     d="M 42.75 135 C 48.070312 152.996094 50.25 157.5 73.5 165.75 "
     id="path156" />
  <path
     fill-rule="evenodd"
     fill="rgb(39.215088%, 39.215088%, 39.215088%)"
     fill-opacity="1"
     stroke-width="0.49867"
     stroke-linecap="butt"
     stroke-linejoin="miter"
     stroke="rgb(39.215088%, 39.215088%, 39.215088%)"
     stroke-opacity="1"
     stroke-miterlimit="4"
     d="M -115.275154 -124.04912 L -113.403907 -125.920141 L -119.947785 -124.051249 L -113.405364 -122.181342 Z M -115.275154 -124.04912 "
     transform="matrix(-1, -0.354838, 0.354838, -1, 0, 0)"
     id="path158" />
  <path
     fill-rule="evenodd"
     fill="rgb(72.155762%, 87.841797%, 82.351685%)"
     fill-opacity="1"
     stroke-width="2.834646"
     stroke-linecap="round"
     stroke-linejoin="round"
     stroke="rgb(39.215088%, 39.215088%, 39.215088%)"
     stroke-opacity="1"
     stroke-miterlimit="4"
     d="M 133.582031 36.933594 C 133.582031 52.203125 121.203125 64.582031 105.933594 64.582031 C 90.660156 64.582031 78.285156 52.203125 78.285156 36.933594 C 78.285156 21.660156 90.660156 9.285156 105.933594 9.285156 C 121.203125 9.285156 133.582031 21.660156 133.582031 36.933594 Z M 133.582031 36.933594 "
     id="path160" />
  <path
     fill-rule="nonzero"
     fill="rgb(39.215088%, 39.215088%, 39.215088%)"
     fill-opacity="1"
     d="M 110.328125 43.199219 L 108.292969 42.730469 C 107.300781 42.480469 106.707031 41.636719 106.707031 40.71875 C 106.707031 39.605469 107.550781 38.636719 108.789062 38.636719 C 111.417969 38.636719 111.765625 41.242188 111.863281 41.9375 C 111.886719 42.035156 111.886719 42.132812 112.0625 42.132812 C 112.261719 42.132812 112.261719 42.058594 112.261719 41.761719 L 112.261719 38.589844 C 112.261719 38.316406 112.261719 38.191406 112.085938 38.191406 C 111.988281 38.191406 111.964844 38.214844 111.863281 38.414062 L 111.292969 39.308594 C 110.824219 38.835938 110.175781 38.191406 108.765625 38.191406 C 107.003906 38.191406 105.691406 39.578125 105.691406 41.265625 C 105.691406 42.582031 106.53125 43.746094 107.746094 44.167969 C 107.921875 44.21875 108.738281 44.414062 109.855469 44.6875 C 110.277344 44.789062 110.746094 44.910156 111.195312 45.480469 C 111.515625 45.902344 111.691406 46.425781 111.691406 46.945312 C 111.691406 48.058594 110.898438 49.199219 109.558594 49.199219 C 109.113281 49.199219 107.894531 49.125 107.054688 48.359375 C 106.136719 47.488281 106.085938 46.5 106.085938 45.929688 C 106.0625 45.753906 105.9375 45.753906 105.886719 45.753906 C 105.691406 45.753906 105.691406 45.878906 105.691406 46.152344 L 105.691406 49.324219 C 105.691406 49.597656 105.691406 49.695312 105.863281 49.695312 C 105.960938 49.695312 105.988281 49.671875 106.085938 49.5 C 106.085938 49.472656 106.136719 49.425781 106.65625 48.582031 C 107.152344 49.125 108.167969 49.695312 109.582031 49.695312 C 111.417969 49.695312 112.683594 48.160156 112.683594 46.398438 C 112.683594 44.835938 111.640625 43.523438 110.328125 43.199219 Z M 110.328125 43.199219 "
     id="path162" />
  <path
     fill-rule="nonzero"
     fill="rgb(39.215088%, 39.215088%, 39.215088%)"
     fill-opacity="1"
     d="M 117.398438 38.886719 C 117.25 38.539062 117.203125 38.539062 116.828125 38.539062 L 114.175781 38.539062 L 114.175781 39.035156 L 114.546875 39.035156 C 115.761719 39.035156 115.789062 39.207031 115.789062 39.777344 L 115.789062 47.6875 C 115.789062 48.109375 115.789062 48.855469 114.175781 48.855469 L 114.175781 49.351562 C 114.722656 49.324219 115.492188 49.300781 116.011719 49.300781 C 116.53125 49.300781 117.324219 49.324219 117.871094 49.351562 L 117.871094 48.855469 C 116.234375 48.855469 116.234375 48.109375 116.234375 47.6875 L 116.234375 39.160156 L 116.257812 39.160156 L 120.078125 49.003906 C 120.152344 49.199219 120.226562 49.351562 120.375 49.351562 C 120.550781 49.351562 120.597656 49.226562 120.671875 49.050781 L 124.566406 39.035156 L 124.566406 48.109375 C 124.566406 48.679688 124.542969 48.855469 123.328125 48.855469 L 122.953125 48.855469 L 122.953125 49.351562 C 123.523438 49.300781 124.617188 49.300781 125.234375 49.300781 C 125.832031 49.300781 126.898438 49.300781 127.492188 49.351562 L 127.492188 48.855469 L 127.09375 48.855469 C 125.878906 48.855469 125.855469 48.679688 125.855469 48.109375 L 125.855469 39.777344 C 125.855469 39.207031 125.878906 39.035156 127.09375 39.035156 L 127.492188 39.035156 L 127.492188 38.539062 L 124.8125 38.539062 C 124.390625 38.539062 124.390625 38.5625 124.292969 38.835938 L 120.820312 47.761719 Z M 117.398438 38.886719 "
     id="path164" />
  <path
     fill-rule="nonzero"
     fill="rgb(39.215088%, 39.215088%, 39.215088%)"
     fill-opacity="1"
     d="M 107.917969 21.789062 L 86.554688 21.789062 L 85.898438 29.675781 L 86.773438 29.675781 C 87.265625 24.035156 87.757812 22.882812 93.070312 22.882812 C 93.675781 22.882812 94.605469 22.882812 94.933594 22.9375 C 95.703125 23.101562 95.703125 23.484375 95.703125 24.253906 L 95.703125 42.710938 C 95.703125 43.863281 95.703125 44.355469 92.03125 44.355469 L 90.605469 44.355469 L 90.605469 45.453125 C 92.03125 45.339844 95.59375 45.339844 97.234375 45.339844 C 98.824219 45.339844 102.4375 45.339844 103.863281 45.453125 L 103.863281 44.355469 L 102.4375 44.355469 C 98.769531 44.355469 98.769531 43.863281 98.769531 42.710938 L 98.769531 24.253906 C 98.769531 23.597656 98.769531 23.101562 99.425781 22.9375 C 99.808594 22.882812 100.742188 22.882812 101.398438 22.882812 C 106.710938 22.882812 107.203125 24.035156 107.695312 29.675781 L 108.574219 29.675781 Z M 107.917969 21.789062 "
     id="path166" />
  <path
     fill="none"
     stroke-width="1.984252"
     stroke-linecap="butt"
     stroke-linejoin="miter"
     stroke="rgb(100%, 83.135986%, 16.470337%)"
     stroke-opacity="1"
     stroke-miterlimit="4"
     d="M 257.25 64.5 C 267.109375 94.527344 244.558594 97.164062 212.25 98.25 "
     id="path168" />
  <path
     fill-rule="evenodd"
     fill="rgb(100%, 83.135986%, 16.470337%)"
     fill-opacity="1"
     stroke-width="0.528835"
     stroke-linecap="butt"
     stroke-linejoin="miter"
     stroke="rgb(100%, 83.135986%, 16.470337%)"
     stroke-opacity="1"
     stroke-miterlimit="4"
     d="M 211.089245 105.269688 L 213.073926 103.285641 L 206.132301 105.267074 L 213.073423 107.250467 Z M 211.089245 105.269688 "
     transform="matrix(1, -0.0336247, 0.0336247, 1, 0, 0)"
     id="path170" />
  <path
     fill="none"
     stroke-width="1.984252"
     stroke-linecap="butt"
     stroke-linejoin="miter"
     stroke="rgb(100%, 83.135986%, 16.470337%)"
     stroke-opacity="1"
     stroke-miterlimit="4"
     d="M 95.789062 149.03125 C 85.929688 119.003906 108.480469 116.367188 140.789062 115.28125 "
     id="path172" />
  <path
     fill-rule="evenodd"
     fill="rgb(100%, 83.135986%, 16.470337%)"
     fill-opacity="1"
     stroke-width="0.528835"
     stroke-linecap="butt"
     stroke-linejoin="miter"
     stroke="rgb(100%, 83.135986%, 16.470337%)"
     stroke-opacity="1"
     stroke-miterlimit="4"
     d="M -134.3793 -119.877839 L -132.39852 -121.862017 L -139.336243 -119.880452 L -132.395122 -117.897059 Z M -134.3793 -119.877839 "
     transform="matrix(-1, 0.0336247, -0.0336247, -1, 0, 0)"
     id="path174" />
  <path
     fill="none"
     stroke-width="1.984252"
     stroke-linecap="butt"
     stroke-linejoin="miter"
     stroke="rgb(39.215088%, 39.215088%, 39.215088%)"
     stroke-opacity="1"
     stroke-miterlimit="4"
     d="M 54.75 87 C 88.5 72 114.75 68.25 150 88.5 "
     id="path176" />
  <path
     fill-rule="evenodd"
     fill="rgb(39.215088%, 39.215088%, 39.215088%)"
     fill-opacity="1"
     stroke-width="0.458815"
     stroke-linecap="butt"
     stroke-linejoin="miter"
     stroke="rgb(39.215088%, 39.215088%, 39.215088%)"
     stroke-opacity="1"
     stroke-miterlimit="4"
     d="M -148.939716 -1.751399 L -147.221571 -3.472793 L -153.244296 -1.751212 L -147.221259 -0.0315666 Z M -148.939716 -1.751399 "
     transform="matrix(-1, -0.574468, 0.574468, -1, 0, 0)"
     id="path178" />
  <path
     fill="none"
     stroke-width="1.984252"
     stroke-linecap="butt"
     stroke-linejoin="miter"
     stroke="rgb(39.215088%, 39.215088%, 39.215088%)"
     stroke-opacity="1"
     stroke-miterlimit="4"
     d="M 299.25 128.578125 C 265.5 143.578125 239.25 147.328125 204 127.078125 "
     id="path180" />
  <path
     fill-rule="evenodd"
     fill="rgb(39.215088%, 39.215088%, 39.215088%)"
     fill-opacity="1"
     stroke-width="0.458815"
     stroke-linecap="butt"
     stroke-linejoin="miter"
     stroke="rgb(39.215088%, 39.215088%, 39.215088%)"
     stroke-opacity="1"
     stroke-miterlimit="4"
     d="M 210.336893 7.433811 L 212.056725 5.715353 L 206.034 7.436935 L 212.057037 9.15658 Z M 210.336893 7.433811 "
     transform="matrix(1, 0.574468, -0.574468, 1, 0, 0)"
     id="path182" />
  <path
     fill="none"
     stroke-width="1.984252"
     stroke-linecap="butt"
     stroke-linejoin="miter"
     stroke="rgb(100%, 83.135986%, 16.470337%)"
     stroke-opacity="1"
     stroke-miterlimit="4"
     d="M 98.25 153 C 83.214844 126.511719 70.023438 102.464844 94.5 66.75 "
     id="path184" />
  <path
     fill-rule="evenodd"
     fill="rgb(100%, 83.135986%, 16.470337%)"
     fill-opacity="1"
     stroke-width="0.436485"
     stroke-linecap="butt"
     stroke-linejoin="miter"
     stroke="rgb(100%, 83.135986%, 16.470337%)"
     stroke-opacity="1"
     stroke-miterlimit="4"
     d="M 3.321737 -95.428587 L 4.957906 -97.065408 L -0.771741 -95.42819 L 4.958558 -93.792418 Z M 3.321737 -95.428587 "
     transform="matrix(-0.685257, 1, -1, -0.685257, 0, 0)"
     id="path186" />
  <path
     fill="none"
     stroke-width="1.984252"
     stroke-linecap="butt"
     stroke-linejoin="miter"
     stroke="rgb(87.449646%, 69.802856%, 95.684814%)"
     stroke-opacity="1"
     stroke-miterlimit="4"
     d="M 146.25 109.5 L 71.25 109.5 "
     id="path188" />
  <path
     fill-rule="evenodd"
     fill="rgb(87.449646%, 69.802856%, 95.684814%)"
     fill-opacity="1"
     stroke-width="0.529134"
     stroke-linecap="butt"
     stroke-linejoin="miter"
     stroke="rgb(87.449646%, 69.802856%, 95.684814%)"
     stroke-opacity="1"
     stroke-miterlimit="4"
     d="M 73.632812 109.5 L 75.617188 107.515625 L 68.671875 109.5 L 75.617188 111.484375 Z M 73.632812 109.5 "
     id="path190" />
  <path
     fill="none"
     stroke-width="1.94768"
     stroke-linecap="round"
     stroke-linejoin="round"
     stroke="rgb(87.449646%, 69.802856%, 95.684814%)"
     stroke-opacity="1"
     stroke-miterlimit="4"
     d="M 130.754076 -110.870829 C 130.753713 -105.491994 126.724449 -100.967882 121.383412 -100.339791 C 116.039345 -99.716197 111.075889 -103.194281 109.836997 -108.427676 C 108.594342 -113.661803 111.471986 -118.992163 116.525597 -120.832464 "
     transform="matrix(0.194696, 1, -1, 0.194696, 0, 0)"
     id="path192" />
  <path
     fill-rule="evenodd"
     fill="rgb(87.449646%, 69.802856%, 95.684814%)"
     fill-opacity="1"
     stroke-width="0.453473"
     stroke-linecap="butt"
     stroke-linejoin="miter"
     stroke="rgb(87.449646%, 69.802856%, 95.684814%)"
     stroke-opacity="1"
     stroke-miterlimit="4"
     d="M -129.646744 64.339623 L -127.945166 62.640083 L -133.896421 64.339086 L -127.945479 66.038332 Z M -129.646744 64.339623 "
     transform="matrix(-0.601275, -1, 1, -0.601275, 0, 0)"
     id="path194" />
  <path
     fill="none"
     stroke-width="1.984252"
     stroke-linecap="butt"
     stroke-linejoin="miter"
     stroke="rgb(61.175537%, 96.469116%, 96.469116%)"
     stroke-opacity="1"
     stroke-miterlimit="4"
     d="M 207 109.5 L 282 109.5 "
     id="path196" />
  <path
     fill-rule="evenodd"
     fill="rgb(61.175537%, 96.469116%, 96.469116%)"
     fill-opacity="1"
     stroke-width="0.529134"
     stroke-linecap="butt"
     stroke-linejoin="miter"
     stroke="rgb(61.175537%, 96.469116%, 96.469116%)"
     stroke-opacity="1"
     stroke-miterlimit="4"
     d="M -279.617188 -109.5 L -277.632812 -111.484375 L -284.578125 -109.5 L -277.632812 -107.515625 Z M -279.617188 -109.5 "
     transform="matrix(-1, 0, 0, -1, 0, 0)"
     id="path198" />
  <path
     fill="none"
     stroke-width="1.981826"
     stroke-linecap="round"
     stroke-linejoin="round"
     stroke="rgb(61.175537%, 96.469116%, 96.469116%)"
     stroke-opacity="1"
     stroke-miterlimit="4"
     d="M -97.742767 227.938842 C -97.745357 233.411627 -101.841478 238.020593 -107.278932 238.652974 C -112.716193 239.289251 -117.766151 235.754016 -119.029645 230.429828 C -120.289434 225.10155 -117.362659 219.675454 -112.220912 217.803802 "
     transform="matrix(0.0494899, -1, 1, 0.0494899, 0, 0)"
     id="path200" />
  <path
     fill-rule="evenodd"
     fill="rgb(61.175537%, 96.469116%, 96.469116%)"
     fill-opacity="1"
     stroke-width="0.505561"
     stroke-linecap="butt"
     stroke-linejoin="miter"
     stroke="rgb(61.175537%, 96.469116%, 96.469116%)"
     stroke-opacity="1"
     stroke-miterlimit="4"
     d="M 174.413904 -159.073879 L 176.311568 -160.968129 L 169.675309 -159.072864 L 176.312822 -157.17868 Z M 174.413904 -159.073879 "
     transform="matrix(0.308916, 1, -1, 0.308916, 0, 0)"
     id="path202" />
  <path
     fill="none"
     stroke-width="1.984252"
     stroke-linecap="butt"
     stroke-linejoin="miter"
     stroke="rgb(100%, 83.135986%, 16.470337%)"
     stroke-opacity="1"
     stroke-miterlimit="4"
     d="M 254.792969 62.816406 C 269.824219 89.304688 283.015625 113.351562 258.542969 149.066406 "
     id="path204" />
  <path
     fill-rule="evenodd"
     fill="rgb(100%, 83.135986%, 16.470337%)"
     fill-opacity="1"
     stroke-width="0.436485"
     stroke-linecap="butt"
     stroke-linejoin="miter"
     stroke="rgb(100%, 83.135986%, 16.470337%)"
     stroke-opacity="1"
     stroke-miterlimit="4"
     d="M 21.086086 245.437331 L 22.722255 243.800509 L 16.992608 245.437727 L 22.72025 247.075321 Z M 21.086086 245.437331 "
     transform="matrix(0.685257, -1, 1, 0.685257, 0, 0)"
     id="path206" />
  <path
     fill-rule="evenodd"
     fill="rgb(58.430481%, 72.155762%, 81.959534%)"
     fill-opacity="1"
     stroke-width="2.834646"
     stroke-linecap="round"
     stroke-linejoin="round"
     stroke="rgb(39.215088%, 39.215088%, 39.215088%)"
     stroke-opacity="1"
     stroke-miterlimit="4"
     d="M 275.3125 36.933594 C 275.3125 52.203125 262.933594 64.582031 247.664062 64.582031 C 232.394531 64.582031 220.015625 52.203125 220.015625 36.933594 C 220.015625 21.660156 232.394531 9.285156 247.664062 9.285156 C 262.933594 9.285156 275.3125 21.660156 275.3125 36.933594 Z M 275.3125 36.933594 "
     id="path208" />
  <path
     fill-rule="nonzero"
     fill="rgb(39.215088%, 39.215088%, 39.215088%)"
     fill-opacity="1"
     d="M 240.84375 34.125 L 236.699219 33.164062 C 234.679688 32.660156 233.46875 30.945312 233.46875 29.074219 C 233.46875 26.800781 235.1875 24.832031 237.710938 24.832031 C 243.066406 24.832031 243.773438 30.136719 243.972656 31.550781 C 244.023438 31.75 244.023438 31.953125 244.378906 31.953125 C 244.78125 31.953125 244.78125 31.800781 244.78125 31.195312 L 244.78125 24.730469 C 244.78125 24.175781 244.78125 23.921875 244.429688 23.921875 C 244.226562 23.921875 244.175781 23.972656 243.972656 24.378906 L 242.8125 26.195312 C 241.851562 25.238281 240.539062 23.921875 237.660156 23.921875 C 234.074219 23.921875 231.398438 26.75 231.398438 30.1875 C 231.398438 32.863281 233.113281 35.238281 235.589844 36.09375 C 235.945312 36.195312 237.609375 36.601562 239.882812 37.15625 C 240.742188 37.359375 241.703125 37.609375 242.609375 38.773438 C 243.265625 39.632812 243.621094 40.691406 243.621094 41.753906 C 243.621094 44.023438 242.003906 46.347656 239.277344 46.347656 C 238.367188 46.347656 235.894531 46.195312 234.175781 44.632812 C 232.308594 42.863281 232.207031 40.84375 232.207031 39.679688 C 232.15625 39.328125 231.902344 39.328125 231.800781 39.328125 C 231.398438 39.328125 231.398438 39.582031 231.398438 40.136719 L 231.398438 46.601562 C 231.398438 47.15625 231.398438 47.359375 231.75 47.359375 C 231.953125 47.359375 232.003906 47.308594 232.207031 46.953125 C 232.207031 46.902344 232.308594 46.804688 233.367188 45.085938 C 234.378906 46.195312 236.449219 47.359375 239.328125 47.359375 C 243.066406 47.359375 245.640625 44.226562 245.640625 40.640625 C 245.640625 37.460938 243.519531 34.78125 240.84375 34.125 Z M 240.84375 34.125 "
     id="path210" />
  <path
     fill-rule="nonzero"
     fill="rgb(39.215088%, 39.215088%, 39.215088%)"
     fill-opacity="1"
     d="M 266.210938 24.730469 L 248.53125 24.730469 L 248.53125 25.742188 L 249.289062 25.742188 C 251.765625 25.742188 251.867188 26.09375 251.867188 27.257812 L 251.867188 44.125 C 251.867188 45.289062 251.765625 45.640625 249.289062 45.640625 L 248.53125 45.640625 L 248.53125 46.652344 C 249.644531 46.550781 252.167969 46.550781 253.433594 46.550781 C 254.746094 46.550781 257.675781 46.550781 258.835938 46.652344 L 258.835938 45.640625 L 257.777344 45.640625 C 254.746094 45.640625 254.746094 45.238281 254.746094 44.125 L 254.746094 36.195312 L 257.472656 36.195312 C 260.605469 36.195312 260.90625 37.207031 260.90625 39.933594 L 261.714844 39.933594 L 261.714844 31.398438 L 260.90625 31.398438 C 260.90625 34.125 260.605469 35.1875 257.472656 35.1875 L 254.746094 35.1875 L 254.746094 27.003906 C 254.746094 25.945312 254.796875 25.742188 256.3125 25.742188 L 260.148438 25.742188 C 264.996094 25.742188 265.804688 27.558594 266.3125 32.003906 L 267.121094 32.003906 Z M 266.210938 24.730469 "
     id="path212" />
  <path
     fill-rule="evenodd"
     fill="rgb(72.155762%, 87.841797%, 82.351685%)"
     fill-opacity="1"
     stroke-width="2.834646"
     stroke-linecap="round"
     stroke-linejoin="round"
     stroke="rgb(39.215088%, 39.215088%, 39.215088%)"
     stroke-opacity="1"
     stroke-miterlimit="4"
     d="M 133.582031 178.664062 C 133.582031 193.933594 121.203125 206.3125 105.933594 206.3125 C 90.660156 206.3125 78.285156 193.933594 78.285156 178.664062 C 78.285156 163.394531 90.660156 151.015625 105.933594 151.015625 C 121.203125 151.015625 133.582031 163.394531 133.582031 178.664062 Z M 133.582031 178.664062 "
     id="path214" />
  <path
     fill-rule="nonzero"
     fill="rgb(39.215088%, 39.215088%, 39.215088%)"
     fill-opacity="1"
     d="M 88.8125 168.628906 C 88.515625 167.9375 88.417969 167.9375 87.679688 167.9375 L 82.410156 167.9375 L 82.410156 168.925781 L 83.148438 168.925781 C 85.5625 168.925781 85.609375 169.269531 85.609375 170.402344 L 85.609375 186.117188 C 85.609375 186.953125 85.609375 188.429688 82.410156 188.429688 L 82.410156 189.417969 C 83.492188 189.367188 85.019531 189.316406 86.054688 189.316406 C 87.089844 189.316406 88.664062 189.367188 89.75 189.417969 L 89.75 188.429688 C 86.496094 188.429688 86.496094 186.953125 86.496094 186.117188 L 86.496094 169.171875 L 86.546875 169.171875 L 94.132812 188.726562 C 94.28125 189.121094 94.429688 189.417969 94.722656 189.417969 C 95.070312 189.417969 95.167969 189.171875 95.316406 188.824219 L 103.046875 168.925781 L 103.046875 186.953125 C 103.046875 188.085938 103 188.429688 100.585938 188.429688 L 99.847656 188.429688 L 99.847656 189.417969 C 100.980469 189.316406 103.148438 189.316406 104.378906 189.316406 C 105.5625 189.316406 107.679688 189.316406 108.863281 189.417969 L 108.863281 188.429688 L 108.074219 188.429688 C 105.660156 188.429688 105.609375 188.085938 105.609375 186.953125 L 105.609375 170.402344 C 105.609375 169.269531 105.660156 168.925781 108.074219 168.925781 L 108.863281 168.925781 L 108.863281 167.9375 L 103.542969 167.9375 C 102.703125 167.9375 102.703125 167.988281 102.507812 168.53125 L 95.609375 186.265625 Z M 88.8125 168.628906 "
     id="path216" />
  <path
     fill-rule="nonzero"
     fill="rgb(39.215088%, 39.215088%, 39.215088%)"
     fill-opacity="1"
     d="M 128.292969 168.039062 L 111.054688 168.039062 L 111.054688 169.023438 L 111.792969 169.023438 C 114.207031 169.023438 114.304688 169.367188 114.304688 170.5 L 114.304688 186.953125 C 114.304688 188.085938 114.207031 188.429688 111.792969 188.429688 L 111.054688 188.429688 L 111.054688 189.417969 C 112.136719 189.316406 114.601562 189.316406 115.832031 189.316406 C 117.113281 189.316406 119.96875 189.316406 121.101562 189.417969 L 121.101562 188.429688 L 120.066406 188.429688 C 117.113281 188.429688 117.113281 188.039062 117.113281 186.953125 L 117.113281 179.21875 L 119.773438 179.21875 C 122.824219 179.21875 123.121094 180.203125 123.121094 182.863281 L 123.910156 182.863281 L 123.910156 174.539062 L 123.121094 174.539062 C 123.121094 177.199219 122.824219 178.234375 119.773438 178.234375 L 117.113281 178.234375 L 117.113281 170.253906 C 117.113281 169.21875 117.160156 169.023438 118.640625 169.023438 L 122.382812 169.023438 C 127.113281 169.023438 127.898438 170.796875 128.390625 175.132812 L 129.179688 175.132812 Z M 128.292969 168.039062 "
     id="path218" />
  <path
     fill="none"
     stroke-width="1.979508"
     stroke-linecap="round"
     stroke-linejoin="round"
     stroke="rgb(39.215088%, 39.215088%, 39.215088%)"
     stroke-opacity="1"
     stroke-miterlimit="4"
     d="M 67.906081 179.832828 C 67.90583 184.629686 64.738637 188.847791 60.134282 190.185093 C 55.533815 191.522664 50.600517 189.657492 48.029446 185.608298 C 45.461994 181.56326 45.873274 176.302688 49.044299 172.705941 C 52.215055 169.113083 57.379155 168.041118 61.71812 170.08387 "
     transform="matrix(-0.069271, 1, 1, 0.069271, 0, 0)"
     id="path220" />
  <path
     fill-rule="evenodd"
     fill="rgb(39.215088%, 39.215088%, 39.215088%)"
     fill-opacity="1"
     stroke-width="0.493199"
     stroke-linecap="butt"
     stroke-linejoin="miter"
     stroke="rgb(39.215088%, 39.215088%, 39.215088%)"
     stroke-opacity="1"
     stroke-miterlimit="4"
     d="M -117.61917 -119.235562 L -115.76727 -121.084163 L -122.240603 -119.236433 L -115.768495 -117.388375 Z M -117.61917 -119.235562 "
     transform="matrix(-0.388625, -1, -1, 0.388625, 0, 0)"
     id="path222" />
  <path
     fill="none"
     stroke-width="1.979508"
     stroke-linecap="round"
     stroke-linejoin="round"
     stroke="rgb(39.215088%, 39.215088%, 39.215088%)"
     stroke-opacity="1"
     stroke-miterlimit="4"
     d="M 58.851069 332.205579 C 58.850817 337.002436 55.683624 341.220542 51.079269 342.557843 C 46.478802 343.895414 41.545504 342.030242 38.974434 337.981048 C 36.406981 333.93601 36.818261 328.675438 39.989286 325.078692 C 43.160042 321.485833 48.324142 320.413868 52.663107 322.45662 "
     transform="matrix(-0.069271, 1, 1, 0.069271, 0, 0)"
     id="path224" />
  <path
     fill-rule="evenodd"
     fill="rgb(39.215088%, 39.215088%, 39.215088%)"
     fill-opacity="1"
     stroke-width="0.493199"
     stroke-linecap="butt"
     stroke-linejoin="miter"
     stroke="rgb(39.215088%, 39.215088%, 39.215088%)"
     stroke-opacity="1"
     stroke-miterlimit="4"
     d="M -170.580133 -251.653608 L -168.728233 -253.502209 L -175.201566 -251.654479 L -168.729458 -249.806421 Z M -170.580133 -251.653608 "
     transform="matrix(-0.388625, -1, -1, 0.388625, 0, 0)"
     id="path226" />
  <path
     fill="none"
     stroke-width="1.739467"
     stroke-linecap="round"
     stroke-linejoin="round"
     stroke="rgb(39.215088%, 39.215088%, 39.215088%)"
     stroke-opacity="1"
     stroke-miterlimit="4"
     d="M -17.575417 -183.669893 C -17.576391 -179.45842 -20.35837 -175.751805 -24.405241 -174.577498 C -28.450465 -173.400189 -32.784576 -175.040882 -35.042033 -178.598721 C -37.297842 -182.153557 -36.935553 -186.77428 -34.15105 -189.935406 C -31.3649 -193.09353 -26.826304 -194.03382 -23.013509 -192.239807 "
     transform="matrix(1, -0.548864, -0.548864, -1, 0, 0)"
     id="path228" />
  <path
     fill-rule="evenodd"
     fill="rgb(39.215088%, 39.215088%, 39.215088%)"
     fill-opacity="1"
     stroke-width="0.427865"
     stroke-linecap="butt"
     stroke-linejoin="miter"
     stroke="rgb(39.215088%, 39.215088%, 39.215088%)"
     stroke-opacity="1"
     stroke-miterlimit="4"
     d="M 96.634294 151.407706 L 98.237932 149.804963 L 92.621152 151.409662 L 98.23959 153.013201 Z M 96.634294 151.407706 "
     transform="matrix(-0.727589, 1, 1, 0.727589, 0, 0)"
     id="path230" />
  <path
     fill="none"
     stroke-width="1.739467"
     stroke-linecap="round"
     stroke-linejoin="round"
     stroke="rgb(39.215088%, 39.215088%, 39.215088%)"
     stroke-opacity="1"
     stroke-miterlimit="4"
     d="M -290.433338 -33.911909 C -290.429663 -29.699082 -293.214644 -25.990819 -297.258513 -24.81816 C -301.303737 -23.640851 -305.64085 -25.279897 -307.898307 -28.837735 C -310.154116 -32.392571 -309.791827 -37.013294 -307.007324 -40.17442 C -304.218171 -43.334191 -299.679576 -44.274482 -295.869783 -42.478821 "
     transform="matrix(-1, -0.548864, 0.548864, -1, 0, 0)"
     id="path232" />
  <path
     fill-rule="evenodd"
     fill="rgb(39.215088%, 39.215088%, 39.215088%)"
     fill-opacity="1"
     stroke-width="0.427865"
     stroke-linecap="butt"
     stroke-linejoin="miter"
     stroke="rgb(39.215088%, 39.215088%, 39.215088%)"
     stroke-opacity="1"
     stroke-miterlimit="4"
     d="M 265.545926 -80.744831 L 267.151421 -82.350127 L 261.534641 -80.745428 L 267.151222 -79.139335 Z M 265.545926 -80.744831 "
     transform="matrix(0.727589, 1, -1, 0.727589, 0, 0)"
     id="path234" />
  <path
     fill="none"
     stroke-width="1.979508"
     stroke-linecap="round"
     stroke-linejoin="round"
     stroke="rgb(39.215088%, 39.215088%, 39.215088%)"
     stroke-opacity="1"
     stroke-miterlimit="4"
     d="M -132.0006 -36.983671 C -132.000584 -32.190701 -135.167776 -27.972596 -139.768244 -26.635025 C -144.372599 -25.297724 -149.305896 -27.162896 -151.877236 -31.208203 C -154.444419 -35.257129 -154.02952 -40.513544 -150.862382 -44.110559 C -147.691356 -47.707305 -142.527526 -48.775382 -138.188291 -46.736517 "
     transform="matrix(0.0692711, -1, -1, -0.0692711, 0, 0)"
     id="path236" />
  <path
     fill-rule="evenodd"
     fill="rgb(39.215088%, 39.215088%, 39.215088%)"
     fill-opacity="1"
     stroke-width="0.493199"
     stroke-linecap="butt"
     stroke-linejoin="miter"
     stroke="rgb(39.215088%, 39.215088%, 39.215088%)"
     stroke-opacity="1"
     stroke-miterlimit="4"
     d="M 137.635849 -15.461388 L 139.48643 -17.313383 L 133.011023 -15.46094 L 139.486525 -13.614201 Z M 137.635849 -15.461388 "
     transform="matrix(0.388625, 1, 1, -0.388625, 0, 0)"
     id="path238" />
  <path
     fill="none"
     stroke-width="1.979508"
     stroke-linecap="round"
     stroke-linejoin="round"
     stroke="rgb(39.215088%, 39.215088%, 39.215088%)"
     stroke-opacity="1"
     stroke-miterlimit="4"
     d="M 248.837519 58.11613 C 248.837267 62.912988 245.670075 67.131093 241.06572 68.468395 C 236.465252 69.805966 231.531955 67.940794 228.960884 63.891599 C 226.393431 59.846562 226.804711 54.585989 229.975737 50.989243 C 233.146493 47.396384 238.310592 46.324419 242.649558 48.367171 "
     transform="matrix(-0.069271, 1, 1, 0.069271, 0, 0)"
     id="path240" />
  <path
     fill-rule="evenodd"
     fill="rgb(39.215088%, 39.215088%, 39.215088%)"
     fill-opacity="1"
     stroke-width="0.493199"
     stroke-linecap="butt"
     stroke-linejoin="miter"
     stroke="rgb(39.215088%, 39.215088%, 39.215088%)"
     stroke-opacity="1"
     stroke-miterlimit="4"
     d="M -222.157851 55.640782 L -220.305951 53.792181 L -226.779283 55.639911 L -220.307175 57.48797 Z M -222.157851 55.640782 "
     transform="matrix(-0.388625, -1, -1, 0.388625, 0, 0)"
     id="path242" />
</svg>
